<svg width="32" height="32" viewBox="0 0 32 32" fill="none" xmlns="http://www.w3.org/2000/svg">
<g clip-path="url(#clip0_188_3134)">
<path d="M22.3639 3.86614C21.3679 3.02081 20.3239 2.13281 19.2612 1.16748C18.7772 0.725982 18.2021 0.396231 17.5765 0.201541C16.951 0.00685215 16.2903 -0.0480189 15.6412 0.0408088C15.0099 0.123385 14.4043 0.343494 13.8673 0.685608C13.3303 1.02772 12.8749 1.48351 12.5332 2.02081V2.02081C11.2666 4.10154 10.3116 6.35659 9.69858 8.71414C9.40748 8.32708 9.03421 8.00934 8.60563 7.78378C8.17705 7.55823 7.7038 7.43046 7.21994 7.40968C6.73607 7.3889 6.25361 7.47561 5.80727 7.66359C5.36093 7.85156 4.96179 8.13613 4.63858 8.49681C2.37841 10.8082 1.12695 13.9215 1.15858 17.1541C1.12853 20.4349 2.19695 23.6313 4.19373 26.2346C6.19051 28.8378 9.00084 30.6982 12.1772 31.5195C13.4223 31.8362 14.7018 31.9974 15.9866 31.9995C17.9361 32.0021 19.8671 31.6203 21.6689 30.8759C23.4707 30.1315 25.1081 29.0391 26.4873 27.6613C27.8665 26.2834 28.9605 24.6471 29.7067 22.846C30.4529 21.0449 30.8366 19.1144 30.8359 17.1648C30.8359 11.0661 26.9106 7.73281 22.3639 3.86614ZM22.6546 25.7141C22.2731 26.0077 21.8722 26.2749 21.4546 26.5141C21.8372 25.7152 22.0376 24.8413 22.0412 23.9555C22.0412 21.3861 20.2506 18.4035 18.0412 15.7888C17.7878 15.4922 17.473 15.254 17.1187 15.0907C16.7643 14.9274 16.3788 14.8428 15.9886 14.8428C15.5984 14.8428 15.2129 14.9274 14.8585 15.0907C14.5041 15.254 14.1894 15.4922 13.9359 15.7888C10.7999 19.4661 8.83591 23.4421 10.6666 26.6661C8.983 25.7193 7.58418 24.3382 6.61589 22.6668C5.64759 20.9955 5.14526 19.095 5.16124 17.1635C5.11988 15.2718 5.7559 13.4275 6.95458 11.9635C7.14302 12.2728 7.34524 12.5719 7.56124 12.8608C7.91796 13.3425 8.40801 13.709 8.9708 13.9152C9.5336 14.1213 10.1445 14.1581 10.7279 14.0208C11.3198 13.8888 11.861 13.589 12.2867 13.1571C12.7124 12.7253 13.0044 12.1798 13.1279 11.5861C13.6207 8.96922 14.564 6.4577 15.9159 4.16348C15.9436 4.11792 15.9815 4.0794 16.0267 4.05095C16.0718 4.0225 16.1229 4.00488 16.1759 3.99948C16.2465 3.99027 16.3183 3.9966 16.3863 4.01801C16.4542 4.03943 16.5167 4.07542 16.5692 4.12348C17.6679 5.12214 18.7466 6.03948 19.7759 6.91148C24.0279 10.5221 26.8359 12.9115 26.8359 17.1595C26.8413 18.8109 26.4671 20.4415 25.7421 21.9252C25.0171 23.409 23.9607 24.7063 22.6546 25.7168V25.7141Z" fill="#3C6E47"/>
</g>
<defs>
<clipPath id="clip0_188_3134">
<rect width="32" height="32" fill="white"/>
</clipPath>
</defs>
</svg>
