<svg width="36" height="36" viewBox="0 0 36 36" fill="none" xmlns="http://www.w3.org/2000/svg">
<g clip-path="url(#clip0_188_2703)">
<path d="M27.75 36.0001H19.551C16.7413 36.0492 13.9521 35.513 11.3609 34.4255C8.76968 33.338 6.43317 31.7232 4.50001 29.6836C2.86428 27.8954 1.6249 25.7817 0.863093 23.481C0.10129 21.1803 -0.165738 18.7447 0.0795103 16.3336C0.451643 12.4106 2.09836 8.71735 4.76789 5.81866C7.43741 2.91997 10.9828 0.97534 14.862 0.2821C17.4104 -0.190595 20.0322 -0.0900296 22.5369 0.576499C25.0416 1.24303 27.3666 2.4588 29.343 4.1356C31.4354 5.89451 33.1161 8.09137 34.2664 10.571C35.4166 13.0507 36.0085 15.7526 36 18.4861V27.7501C35.9972 29.9373 35.1271 32.0341 33.5806 33.5807C32.034 35.1272 29.9372 35.9973 27.75 36.0001V36.0001ZM18.045 4.5001C14.6768 4.49719 11.4285 5.75058 8.93526 8.01526C6.442 10.2799 4.883 13.3931 4.56301 16.7461C4.37949 18.5347 4.57593 20.3418 5.13946 22.0492C5.70298 23.7566 6.62088 25.3257 7.83301 26.6536C9.34371 28.2294 11.1655 29.4739 13.1827 30.3082C15.1999 31.1426 17.3686 31.5484 19.551 31.5001H27.75C28.7446 31.5001 29.6984 31.105 30.4017 30.4017C31.1049 29.6985 31.5 28.7447 31.5 27.7501V18.4861C31.5069 16.4098 31.0584 14.3573 30.186 12.4731C29.3137 10.589 28.0387 8.91908 26.451 7.5811C24.1042 5.58781 21.1241 4.49555 18.045 4.5001ZM15.75 25.5001C15.2568 25.5008 14.7682 25.4041 14.3124 25.2157C13.8565 25.0273 13.4423 24.7508 13.0935 24.4021L8.93401 20.3656C8.51092 19.9491 8.26962 19.3822 8.26268 18.7885C8.25574 18.1948 8.48374 17.6225 8.89698 17.1962C9.31022 16.7699 9.8752 16.5242 10.4688 16.5127C11.0624 16.5011 11.6365 16.7247 12.066 17.1346L15.75 20.7001L23.925 12.6466C24.1342 12.4337 24.3837 12.2645 24.6589 12.149C24.9341 12.0334 25.2295 11.9738 25.528 11.9735C25.8265 11.9733 26.122 12.0324 26.3974 12.1475C26.6728 12.2626 26.9226 12.4313 27.1321 12.6438C27.3417 12.8564 27.5069 13.1085 27.6181 13.3855C27.7292 13.6625 27.7842 13.9588 27.7797 14.2573C27.7752 14.5557 27.7114 14.8503 27.592 15.1239C27.4725 15.3974 27.2999 15.6444 27.084 15.8506L18.39 24.4126C18.0435 24.7591 17.6318 25.0335 17.1787 25.2202C16.7256 25.4068 16.24 25.502 15.75 25.5001V25.5001Z" fill="#3C6E47"/>
</g>
<defs>
<clipPath id="clip0_188_2703">
<rect width="36" height="36" fill="white"/>
</clipPath>
</defs>
</svg>
