<svg width="1440" height="1024" viewBox="0 0 1440 1024" fill="none" xmlns="http://www.w3.org/2000/svg">
<g clip-path="url(#clip0_123_2030)">
<rect width="1440" height="1024" fill="white"/>
<path d="M-48.5 678.929C-48.5 678.929 35 663.429 84.5 678.929C134 694.429 165 745.429 205.5 781.429C246 817.429 268 766.429 341 808.429C414 850.429 375.5 890.429 434.5 928.929C493.5 967.429 569.5 873.429 657.5 852.429C745.5 831.429 790 915.929 888 902.429C986 888.929 931.5 812.429 1010 755.429C1088.5 698.429 1199.5 733.429 1253 698.429C1306.5 663.429 1281.5 651.5 1345.5 598.5C1409.5 545.5 1476 569.429 1476 569.429V1167.93L-48.5 1146.43V678.929Z" fill="#F3F8EB"/>
<path d="M-14.9638 741.5C-14.9638 741.5 8.5 709 115 769.5C221.5 830 271.036 992.5 353.036 1012.5C435.036 1032.5 455 970.5 598.5 970.5C709.413 970.5 728.349 1019.49 764.013 1032.5H802.536C873.536 1012.5 845 971.5 962.5 925.5C1080 879.5 1119.04 955.412 1190.54 908C1262.04 860.588 1259.5 799.5 1302 709C1344.5 618.5 1479.04 605 1479.04 605L1459.04 1032.5H802.536C786.413 1037.04 774.491 1036.32 764.013 1032.5H-14.9638V741.5Z" fill="#DAE5C7"/>
</g>
<defs>
<clipPath id="clip0_123_2030">
<rect width="1440" height="1024" fill="white"/>
</clipPath>
</defs>
</svg>
