<svg width="28" height="28" viewBox="0 0 28 28" fill="none" xmlns="http://www.w3.org/2000/svg">
<g clip-path="url(#clip0_294_2055)">
<path d="M8.16658 28.0006C9.45524 28.0006 10.4999 26.956 10.4999 25.6673C10.4999 24.3787 9.45524 23.334 8.16658 23.334C6.87792 23.334 5.83325 24.3787 5.83325 25.6673C5.83325 26.956 6.87792 28.0006 8.16658 28.0006Z" fill="#374957"/>
<path d="M19.8333 28.0006C21.122 28.0006 22.1667 26.956 22.1667 25.6673C22.1667 24.3787 21.122 23.334 19.8333 23.334C18.5447 23.334 17.5 24.3787 17.5 25.6673C17.5 26.956 18.5447 28.0006 19.8333 28.0006Z" fill="#374957"/>
<path d="M26.8147 7.021C25.9934 6.23571 24.894 5.80854 23.758 5.83333H6.59633L6.2895 3.42767C6.17809 2.48348 5.72411 1.61298 5.01363 0.98121C4.30316 0.349438 3.38557 0.000305523 2.43483 0L1.75 0C1.28587 0 0.840752 0.184374 0.512563 0.512563C0.184374 0.840752 0 1.28587 0 1.75H0C0 2.21413 0.184374 2.65925 0.512563 2.98744C0.840752 3.31563 1.28587 3.5 1.75 3.5H2.43483C2.53027 3.50102 2.62196 3.53735 2.69219 3.60199C2.76242 3.66662 2.80623 3.75497 2.81517 3.85L4.56517 17.5688C4.67554 18.5138 5.1291 19.3852 5.83971 20.0178C6.55032 20.6503 7.46848 20.9998 8.41983 21H20.2288C21.6336 20.9992 22.9992 20.5374 24.1162 19.6855C25.2332 18.8337 26.0398 17.6388 26.4122 16.2843L27.8658 10.9982C28.0596 10.3016 28.0644 9.56602 27.8796 8.86702C27.6949 8.16802 27.3273 7.53084 26.8147 7.021ZM23.0417 15.3568C22.8709 15.972 22.5035 16.5145 21.9956 16.9014C21.4878 17.2884 20.8673 17.4986 20.2288 17.5H8.41983C8.32444 17.4992 8.23276 17.4629 8.16266 17.3982C8.09256 17.3335 8.04907 17.245 8.04067 17.15L7.04317 9.33333H23.933C24.0231 9.33266 24.1121 9.35287 24.1931 9.39238C24.2741 9.43189 24.3449 9.48962 24.3998 9.56106C24.4547 9.63249 24.4924 9.71568 24.5097 9.80409C24.5271 9.89251 24.5238 9.98375 24.5 10.0707L23.0417 15.3568Z" fill="#374957"/>
</g>
<defs>
<clipPath id="clip0_294_2055">
<rect width="28" height="28" fill="white"/>
</clipPath>
</defs>
</svg>
