<svg width="180" height="140" viewBox="0 0 180 140" fill="none" xmlns="http://www.w3.org/2000/svg">
<path d="M44.7 24.2112C44.7 24.2112 48.7915 7.24881 71.7494 5.92363C94.7074 4.59844 99.9354 24.2112 99.9354 24.2112C99.9354 24.2112 106.3 10.1642 122.666 19.1755C139.032 28.1867 129.485 42.2336 129.485 42.2336C129.485 42.2336 136.532 36.9329 144.487 52.8351C152.443 68.7373 139.032 79.0737 139.032 79.0737C139.032 79.0737 146.079 91.5304 142.214 102.132C138.35 112.733 119.484 110.878 119.484 110.878C119.484 110.878 108.346 140.032 71.7494 138.972C35.1531 137.912 28.5612 118.829 28.5612 118.829C28.5612 118.829 7.42173 120.684 2.19369 102.132C-3.03436 83.5793 10.604 73.508 10.604 73.508C10.604 73.508 4.01214 63.7016 5.60329 47.5344C7.19443 31.3671 18.3324 31.3671 18.3324 31.3671C18.3324 31.3671 21.5148 19.1755 31.7435 19.1755C41.9723 19.1755 44.7 24.2112 44.7 24.2112Z" fill="#EDEDED" stroke="#4C4C4C" stroke-width="2"/>
<path d="M66.6221 71.4353L69.0712 72.153L69.7391 70L73.0788 72.153L76.1959 70.7177L79.0903 72.153L82.2073 70.7177L76.1959 85.5493L66.6221 71.4353Z" fill="#BEBEBE" stroke="black" stroke-width="2"/>
<ellipse cx="45.705" cy="63.1974" rx="11.0737" ry="13.6056" fill="white"/>
<ellipse cx="103.124" cy="63.1974" rx="11.0737" ry="13.6056" fill="white"/>
<ellipse cx="46.5252" cy="66.1125" rx="10.2535" ry="10.6901" fill="black"/>
<ellipse cx="103.125" cy="66.1125" rx="10.2535" ry="10.6901" fill="black"/>
<ellipse cx="32.9908" cy="56.3943" rx="1.64055" ry="1.94366" fill="black"/>
<ellipse cx="115.429" cy="56.3943" rx="2.05069" ry="1.94366" fill="black"/>
<ellipse cx="35.8617" cy="51.5355" rx="2.05069" ry="1.94366" fill="black"/>
<ellipse cx="51.0369" cy="62.2254" rx="1.64055" ry="1.94366" fill="white"/>
<ellipse cx="108.456" cy="62.2254" rx="1.64055" ry="1.94366" fill="white"/>
<ellipse cx="111.737" cy="51.5355" rx="1.64055" ry="1.94366" fill="black"/>
<path d="M78.3388 22.2249C78.587 31.1066 68.7498 31.4435 65.772 29.2231C62.7943 27.0027 61.9569 23.3842 59.2273 17.5556C56.4977 11.727 49.3014 5.89839 50.7903 5.89839C52.2792 5.89839 56.7458 5.06573 60.2199 5.89839C63.694 6.73105 66.6717 8.39636 68.4088 9.50658C70.1458 10.6168 78.0907 13.3432 78.3388 22.2249Z" fill="#36B139" stroke="#1F671A" stroke-width="2"/>
<path d="M51.4277 6.48242C55.5019 7.207 58.0401 8.14101 62.3055 11.2529M71.1215 20.3167C73.6131 24.8912 73.5126 26.0096 74.2642 28.9036M71.1215 20.3167C69.9812 18.2846 68.9705 16.8325 66.9314 14.9669M71.1215 20.3167L65.2553 21.2708M71.1215 20.3167L71.7501 15.5463M62.3055 11.2529C62.7133 11.5504 63.137 11.8679 63.5792 12.207C64.9565 13.2606 66.0418 14.1531 66.9314 14.9669M62.3055 11.2529L59.3891 11.4914M62.3055 11.2529V8.62913M66.9314 14.9669L67.1409 11.4914M66.9314 14.9669L63.1602 15.5463" stroke="#D7FFDA"/>
<path d="M78.5081 12.6096C74.6029 18.5998 74.7982 20.5058 75.5792 25.6791C76.3602 30.8525 88.0176 28.2591 89.5797 27.7145C91.1418 27.17 94.9098 24.59 95.4956 22.684C96.0813 20.778 95.4956 16.9661 95.4956 13.971C95.4956 10.9759 96.0813 10.4314 97.6434 8.2531C99.2055 6.07485 103.892 2.5352 103.111 1.71835C102.33 0.9015 99.0102 0.629226 95.4956 1.71835C91.9809 2.80748 82.4132 6.61942 78.5081 12.6096Z" fill="#36B139" stroke="#1F671A" stroke-width="2"/>
<path d="M77.4284 27.476C77.7455 24.2172 78.7113 21.6316 82.4566 15.0728M82.4566 15.0728C84.0679 12.5554 86.8563 9.3483 86.8563 9.3483M82.4566 15.0728H89.7894M82.4566 15.0728V11.2565M86.8563 9.3483C86.8563 9.3483 89.4655 6.78885 92.3035 5.29342M86.8563 9.3483H92.3035M86.8563 9.3483V7.44012M92.3035 5.29342C96.2753 3.32725 98.5426 2.9423 102.569 1.9541M92.3035 5.29342L96.0747 6.00899M92.3035 5.29342V4.10081" stroke="#D7FFDA"/>
<path d="M164.55 22.8983C164.331 20.6567 159.733 18.1661 161.266 16.1735C162.798 14.181 164.55 17.4189 166.739 16.1735C168.929 14.9282 169.586 16.9207 170.023 19.1623C170.461 21.4039 169.586 21.902 168.71 22.8983C167.834 23.8946 170.68 26.8834 168.71 27.8796C166.739 28.8759 166.739 27.3815 165.426 26.6343C164.112 25.8871 164.769 25.1399 164.55 22.8983Z" fill="#EDEDED"/>
<path d="M177.029 9.94689C178.124 9.1997 179 10.6941 179 11.9394C179 13.1847 178.781 14.6791 178.124 15.1773C177.467 15.6754 178.562 17.6679 177.467 18.9133C176.373 20.1586 174.84 17.917 175.059 16.1735C175.278 14.4301 176.154 14.9282 176.592 13.6829C177.029 12.4375 175.935 10.6941 177.029 9.94689Z" fill="#EDEDED"/>
<path d="M164.55 22.8983C164.331 20.6567 159.733 18.1661 161.266 16.1735C162.798 14.181 164.55 17.4189 166.739 16.1735C168.929 14.9282 169.586 16.9207 170.023 19.1623C170.461 21.4039 169.586 21.902 168.71 22.8983C167.834 23.8946 170.68 26.8834 168.71 27.8796C166.739 28.8759 166.739 27.3815 165.426 26.6343C164.112 25.8871 164.769 25.1399 164.55 22.8983Z" stroke="#4C4C4C" stroke-width="2"/>
<path d="M177.029 9.94689C178.124 9.1997 179 10.6941 179 11.9394C179 13.1847 178.781 14.6791 178.124 15.1773C177.467 15.6754 178.562 17.6679 177.467 18.9133C176.373 20.1586 174.84 17.917 175.059 16.1735C175.278 14.4301 176.154 14.9282 176.592 13.6829C177.029 12.4375 175.935 10.6941 177.029 9.94689Z" stroke="#4C4C4C" stroke-width="2"/>
<path d="M148.585 40.7793C147.252 39.0048 146.217 41.7752 143.634 40.7793C141.052 39.7834 141.769 37.1278 141.052 35.3021C141.052 35.3021 139.33 31.8166 141.697 29.078C144.065 26.3394 147.078 29.8249 147.078 29.8249C147.078 29.8249 149.23 30.3228 149.876 29.8249C150.522 29.327 150.091 28.5801 150.952 27.8332C151.813 27.0863 154.396 26.8373 156.118 28.3311C157.84 29.8249 157.84 32.5635 157.84 32.5635C157.84 32.5635 163.005 33.3104 161.499 37.5428C159.992 41.7752 156.764 41.2772 156.764 41.2772C156.764 41.2772 156.764 45.7586 152.674 44.5138C148.585 43.2689 148.585 40.7793 148.585 40.7793Z" fill="#EDEDED" stroke="#4C4C4C" stroke-width="2"/>
</svg>
