<svg width="110" height="84" viewBox="0 0 110 84" fill="none" xmlns="http://www.w3.org/2000/svg">
<path d="M79.9999 54L101.347 47.6842M101.347 47.6842V42M101.347 47.6842L104.771 51.2632M101.347 47.6842L109 45.1579" stroke="black"/>
<path d="M64.9612 19.5108C64.9612 19.5108 62.5232 10.7201 48.8437 10.0333C35.1641 9.34653 32.049 19.5108 32.049 19.5108C32.049 19.5108 28.2566 12.231 18.5049 16.901C8.75311 21.5711 14.4416 28.8509 14.4416 28.8509C14.4416 28.8509 10.243 26.1038 5.50252 34.3451C0.762082 42.5864 8.75311 47.9432 8.75311 47.9432C8.75311 47.9432 4.55443 54.3989 6.85693 59.8931C9.15942 65.3873 20.401 64.4258 20.401 64.4258C20.401 64.4258 27.0377 79.5348 48.8437 78.9854C70.6497 78.436 74.5775 68.5464 74.5775 68.5464C74.5775 68.5464 87.1735 69.5079 90.2887 59.8931C93.4038 50.2782 85.2774 45.0588 85.2774 45.0588C85.2774 45.0588 89.2051 39.9766 88.2571 31.598C87.309 23.2194 80.6724 23.2194 80.6724 23.2194C80.6724 23.2194 78.7762 16.901 72.6813 16.901C66.5865 16.901 64.9612 19.5108 64.9612 19.5108Z" fill="#EDEDED" stroke="#4C4C4C" stroke-width="2"/>
<path d="M69.9999 47.6462L68.4285 47.9692L67.9999 47L65.8571 47.9692L63.8571 47.3231L61.9999 47.9692L59.9999 47.3231L63.8571 54L69.9999 47.6462Z" fill="#BEBEBE" stroke="black"/>
<path d="M26.8965 61.1584L9.49229 75.303M9.49229 75.303L11.6474 80.215M9.49229 75.303L4.96007 73.6034M9.49229 75.303L3.35244 80.6002" stroke="black"/>
<path d="M51.5221 13.6218C51.3592 19.0284 57.8166 19.2335 59.7713 17.8818C61.726 16.5302 62.2757 14.3275 64.0675 10.7794C65.8593 7.23136 70.5832 3.68328 69.6058 3.68328C68.6285 3.68328 65.6964 3.17641 63.416 3.68328C61.1355 4.19015 59.1808 5.20389 58.0405 5.87971C56.9003 6.55554 51.685 8.21521 51.5221 13.6218Z" fill="#36B139" stroke="#1F671A"/>
<path d="M69.1875 4.03906C66.5131 4.48014 64.8469 5.0487 62.047 6.943M56.2598 12.4605C54.6243 15.2451 54.6903 15.926 54.1969 17.6876M56.2598 12.4605C57.0084 11.2235 57.6719 10.3395 59.0104 9.20389M56.2598 12.4605L60.1106 13.0413M56.2598 12.4605L55.8473 9.55655M62.047 6.943C61.7793 7.12413 61.5012 7.31738 61.2109 7.52379C60.3068 8.16519 59.5944 8.70848 59.0104 9.20389M62.047 6.943L63.9614 7.0882M62.047 6.943V5.34584M59.0104 9.20389L58.8729 7.0882M59.0104 9.20389L61.4859 9.55655" stroke="#D7FFDA" stroke-width="0.5"/>
<path d="M53.1755 8.06718C55.739 11.7136 55.6108 12.8738 55.0981 16.023C54.5854 19.1722 46.9331 17.5936 45.9077 17.2621C44.8823 16.9306 42.4089 15.3601 42.0243 14.1998C41.6398 13.0396 42.0243 10.7191 42.0243 8.89591C42.0243 7.07269 41.6398 6.7412 40.6144 5.41522C39.589 4.08924 36.5129 1.93453 37.0256 1.43729C37.5382 0.94004 39.7172 0.774297 42.0243 1.43729C44.3315 2.10027 50.612 4.42074 53.1755 8.06718Z" fill="#36B139" stroke="#1F671A"/>
<path d="M53.8847 17.1167C53.6766 15.1329 53.0426 13.559 50.584 9.56641M50.584 9.56641C49.5264 8.03395 47.6959 6.08168 47.6959 6.08168M50.584 9.56641H45.7705M50.584 9.56641V7.24325M47.6959 6.08168C47.6959 6.08168 45.9831 4.52365 44.1202 3.61333M47.6959 6.08168H44.1202M47.6959 6.08168V4.9201M44.1202 3.61333C41.513 2.41645 40.0247 2.18212 37.3813 1.58057M44.1202 3.61333L41.6447 4.04892M44.1202 3.61333V2.88734" stroke="#D7FFDA" stroke-width="0.5"/>
<ellipse cx="5" cy="6" rx="5" ry="6" transform="matrix(-1 0 0 1 56.9999 33)" fill="white"/>
<circle cx="5" cy="5" r="5" transform="matrix(-1 0 0 1 56.9999 35)" fill="black"/>
<ellipse cx="1" cy="0.5" rx="1" ry="0.5" transform="matrix(-1 0 0 1 46.9999 35)" fill="black"/>
<ellipse cx="0.5" cy="1.5" rx="0.5" ry="1.5" transform="matrix(-1 0 0 1 49.9999 36)" fill="white"/>
<ellipse cx="1" cy="0.5" rx="1" ry="0.5" transform="matrix(-1 0 0 1 48.9999 33)" fill="black"/>
<ellipse cx="5" cy="6" rx="5" ry="6" transform="matrix(-1 0 0 1 79.9999 33)" fill="white"/>
<ellipse cx="4.5" cy="5" rx="4.5" ry="5" transform="matrix(-1 0 0 1 78.9999 35)" fill="black"/>
<circle cx="0.5" cy="0.5" r="0.5" transform="matrix(-1 0 0 1 80.9999 35)" fill="black"/>
<circle cx="0.5" cy="0.5" r="0.5" transform="matrix(-1 0 0 1 79.9999 33)" fill="black"/>
<ellipse cx="0.5" cy="1.5" rx="0.5" ry="1.5" transform="matrix(-1 0 0 1 72.9999 36)" fill="white"/>
</svg>
