<svg width="562" height="412" viewBox="0 0 562 412" fill="none" xmlns="http://www.w3.org/2000/svg">
<path d="M258.705 144.76C258.705 144.76 257.465 106.874 308.642 88.5709C359.82 70.2681 383.81 107.325 383.81 107.325C383.81 107.325 389.524 73.9329 432.174 81.495C474.824 89.057 461.902 124.606 461.902 124.606C461.902 124.606 474.579 108.857 502.449 136.384C530.318 163.911 506.346 194.397 506.346 194.397C506.346 194.397 530.022 215.408 527.836 239.973C525.651 264.538 481.77 273.484 481.77 273.484C481.77 273.484 474.602 341.384 391.057 363.992C307.511 386.6 280.761 351.565 280.761 351.565C280.761 351.565 234.03 369.733 210.697 334.871C187.364 300.009 212.015 269.917 212.015 269.917C212.015 269.917 191.011 254.084 184.6 219.539C178.189 184.993 203.416 177.444 203.416 177.444C203.416 177.444 203.072 150.049 226.24 143.117C249.407 136.184 258.705 144.76 258.705 144.76Z" fill="#EDEDED" stroke="#4C4C4C" stroke-width="6"/>
<path d="M322.215 258.766L331.585 255.246L329.492 247.631L344.593 246.158L351.869 235.024L364.105 232.528L371.381 221.393L381.225 277.044L322.215 258.766Z" fill="#BEBEBE" stroke="black" stroke-width="3"/>
<ellipse cx="266.42" cy="240.241" rx="26.5243" ry="30.8548" transform="rotate(-29.442 266.42 240.241)" fill="white"/>
<ellipse cx="386.157" cy="172.657" rx="26.5243" ry="30.8548" transform="rotate(-29.442 386.157 172.657)" fill="white"/>
<ellipse cx="271.764" cy="245.305" rx="24.3591" ry="23.8178" transform="rotate(-29.442 271.764 245.305)" fill="black"/>
<ellipse cx="389.615" cy="178.786" rx="24.3591" ry="23.8178" transform="rotate(-29.442 389.615 178.786)" fill="black"/>
<circle cx="232.366" cy="242.68" r="4.3305" transform="rotate(-29.442 232.366 242.68)" fill="black"/>
<circle cx="403.957" cy="145.828" r="4.3305" transform="rotate(-29.442 403.957 145.828)" fill="black"/>
<circle cx="232.169" cy="229.116" r="4.3305" transform="rotate(-29.442 232.169 229.116)" fill="black"/>
<circle cx="274.457" cy="231.354" r="4.3305" transform="rotate(-29.442 274.457 231.354)" fill="white"/>
<circle cx="394.194" cy="163.771" r="4.3305" transform="rotate(-29.442 394.194 163.771)" fill="white"/>
<circle cx="390.561" cy="139.714" r="4.3305" transform="rotate(-29.442 390.561 139.714)" fill="black"/>
<path d="M226 340L168.583 323.684M168.583 323.684V309M168.583 323.684L159.375 332.93M168.583 323.684L148 317.158" stroke="black" stroke-width="5"/>
<path d="M92.9489 294.82L33.7515 183.327L46.8564 133.583L93.5548 151.575L152.752 263.067L122.851 278.944L92.9489 294.82Z" fill="#E8E8E8"/>
<path d="M46.8564 133.583L33.7515 183.327L92.9489 294.82L122.851 278.944M46.8564 133.583L93.5548 151.575L152.752 263.067L122.851 278.944M46.8564 133.583L122.851 278.944" stroke="#515151" stroke-width="2"/>
<path d="M138.251 339.953L119.021 303.736L86.3452 321.085L77.2959 304.042L168.542 255.594L177.591 272.638L143.682 290.642L162.912 326.859L138.251 339.953Z" fill="#DCAC3D" stroke="#6E5317" stroke-width="2"/>
<path d="M54.9303 208.496C52.1891 206.31 40.9791 182.221 40.9791 182.221L45.5651 167.041C45.5651 167.041 57.6716 210.682 54.9303 208.496Z" fill="#FAFAFA"/>
<path d="M268.672 90.2261C257.741 105.711 258.288 110.639 260.474 124.012C262.66 137.386 295.29 130.682 299.662 129.274C304.034 127.866 314.581 121.197 316.221 116.27C317.86 111.342 316.221 101.488 316.221 93.7455C316.221 86.0028 317.86 84.595 322.233 78.964C326.605 73.333 339.722 64.1825 337.536 62.0709C335.349 59.9592 326.058 59.2554 316.221 62.0709C306.383 64.8864 279.603 74.7407 268.672 90.2261Z" fill="#36B139" stroke="#1F671A" stroke-width="3"/>
<path d="M265.649 128.657C266.537 120.233 269.24 113.549 279.723 96.5937M279.723 96.5937C284.233 90.0858 292.038 81.7951 292.038 81.7951M279.723 96.5937H300.248M279.723 96.5937V86.7279M292.038 81.7951C292.038 81.7951 299.342 75.1786 307.285 71.3127M292.038 81.7951H307.285M292.038 81.7951V76.8622M307.285 71.3127C318.402 66.2299 324.749 65.2348 336.02 62.6802M307.285 71.3127L317.841 73.1625M307.285 71.3127V68.2297" stroke="#D7FFDA"/>
<path d="M274.709 136.673C275.404 159.634 247.869 160.505 239.534 154.764C231.199 149.024 228.855 139.67 221.215 124.603C213.575 109.535 193.432 94.4674 197.6 94.4674C201.767 94.4674 214.269 92.3149 223.993 94.4674C233.718 96.6199 242.052 100.925 246.914 103.795C251.776 106.665 274.014 113.713 274.709 136.673Z" fill="#36B139" stroke="#1F671A" stroke-width="3"/>
<path d="M199.384 95.9775C210.788 97.8507 217.892 100.265 229.831 108.31M254.507 131.741C261.481 143.566 261.2 146.458 263.304 153.939M254.507 131.741C251.316 126.488 248.487 122.734 242.779 117.911M254.507 131.741L238.088 134.207M254.507 131.741L256.267 119.409M229.831 108.31C230.973 109.079 232.158 109.9 233.396 110.776C237.251 113.5 240.289 115.807 242.779 117.911M229.831 108.31L221.668 108.926M229.831 108.31V101.527M242.779 117.911L243.365 108.926M242.779 117.911L232.223 119.409" stroke="#D7FFDA"/>
<path d="M150 132L156.5 138.5M163 145L156.5 138.5M156.5 138.5L151 144.071L163 132" stroke="#DCAC3D" stroke-width="4"/>
<path d="M78 105L86 113M94 121L86 113M86 113L79.2308 119.857L94 105" stroke="#DCAC3D" stroke-width="4"/>
<path d="M89.7563 27.6045L97.1533 39.2304M104.55 50.8563L97.1533 39.2304M97.1533 39.2304L87.2928 45.5939L108.779 31.8334" stroke="#DCAC3D" stroke-width="4"/>
<path d="M168.352 117.877L169.252 112.18L181.545 126.776M181.545 126.776L176.996 130.923M181.545 126.776L186.094 122.628" stroke="#DCAC3D" stroke-width="4"/>
<path d="M100.02 87.1089L101.132 80.0708L116.317 98.1011M116.317 98.1011L110.698 103.224M116.317 98.1011L121.936 92.9777" stroke="#DCAC3D" stroke-width="4"/>
<path d="M119.692 12.8126L122.772 5L135.63 29.6272M135.63 29.6272L127.855 34.0845M135.63 29.6272L143.405 25.17" stroke="#DCAC3D" stroke-width="4"/>
<path d="M510.968 35.4904C510.422 30.6345 498.957 25.239 502.778 20.9226C506.6 16.6062 510.968 23.6204 516.427 20.9226C521.886 18.2249 523.524 22.5413 524.616 27.3972C525.708 32.2531 523.524 33.3322 521.341 35.4904C519.157 37.6486 526.254 44.1232 521.341 46.2813C516.427 48.4395 516.427 45.2022 513.151 43.5836C509.876 41.965 511.513 40.3463 510.968 35.4904Z" fill="#EDEDED"/>
<path d="M542.086 7.43393C544.816 5.81529 547 9.05257 547 11.7503C547 14.448 546.454 17.6853 544.816 18.7644C543.178 19.8435 545.908 24.1599 543.178 26.8576C540.449 29.5554 536.627 24.6994 537.173 20.9226C537.719 17.1458 539.903 18.2249 540.995 15.5271C542.086 12.8294 539.357 9.05258 542.086 7.43393Z" fill="#EDEDED"/>
<path d="M510.968 35.4904C510.422 30.6345 498.957 25.239 502.778 20.9226C506.6 16.6062 510.968 23.6204 516.427 20.9226C521.886 18.2249 523.524 22.5413 524.616 27.3972C525.708 32.2531 523.524 33.3322 521.341 35.4904C519.157 37.6486 526.254 44.1232 521.341 46.2813C516.427 48.4395 516.427 45.2022 513.151 43.5836C509.876 41.965 511.513 40.3463 510.968 35.4904Z" stroke="#4C4C4C" stroke-width="3"/>
<path d="M542.086 7.43393C544.816 5.81529 547 9.05257 547 11.7503C547 14.448 546.454 17.6853 544.816 18.7644C543.178 19.8435 545.908 24.1599 543.178 26.8576C540.449 29.5554 536.627 24.6994 537.173 20.9226C537.719 17.1458 539.903 18.2249 540.995 15.5271C542.086 12.8294 539.357 9.05258 542.086 7.43393Z" stroke="#4C4C4C" stroke-width="3"/>
<path d="M469.605 71.4131C466.231 67.5583 463.61 73.5764 457.071 71.4131C450.531 69.2498 452.348 63.481 450.531 59.5149C450.531 59.5149 446.171 51.9434 452.166 45.9943C458.16 40.0452 465.79 47.6168 465.79 47.6168C465.79 47.6168 471.24 48.6984 472.875 47.6168C474.509 46.5351 473.42 44.9126 475.599 43.2902C477.779 41.6677 484.319 41.1269 488.679 44.3718C493.038 47.6168 493.038 53.5658 493.038 53.5658C493.038 53.5658 506.117 55.1883 502.303 64.3823C498.488 73.5764 490.313 72.4947 490.313 72.4947C490.313 72.4947 490.313 82.2296 479.959 79.5255C469.605 76.8213 469.605 71.4131 469.605 71.4131Z" fill="#EDEDED" stroke="#4C4C4C" stroke-width="4"/>
</svg>
