<svg width="495" height="407" viewBox="0 0 495 407" fill="none" xmlns="http://www.w3.org/2000/svg">
<path d="M175.197 95.3188C175.197 95.3188 185.145 59.9012 240.964 57.1342C296.783 54.3672 309.494 95.3188 309.494 95.3188C309.494 95.3188 324.968 65.9886 364.76 84.8042C404.552 103.62 381.34 132.95 381.34 132.95C381.34 132.95 398.472 121.882 417.816 155.086C437.159 188.29 404.552 209.873 404.552 209.873C404.552 209.873 421.684 235.882 412.289 258.018C402.894 280.154 357.023 276.281 357.023 276.281C357.023 276.281 329.942 337.155 240.964 334.941C151.985 332.727 135.958 292.883 135.958 292.883C135.958 292.883 84.5603 296.756 71.8491 258.018C59.1378 219.28 92.2975 198.251 92.2975 198.251C92.2975 198.251 76.2704 177.775 80.139 144.018C84.0076 110.261 111.088 110.261 111.088 110.261C111.088 110.261 118.825 84.8042 143.695 84.8042C168.565 84.8042 175.197 95.3188 175.197 95.3188Z" fill="#EDEDED" stroke="#4C4C4C" stroke-width="6"/>
<path d="M227.947 182.323L234.075 183.985L235.747 179L244.104 183.985L251.904 180.662L259.147 183.985L266.947 180.662L251.904 215L227.947 182.323Z" fill="#BEBEBE" stroke="black" stroke-width="3"/>
<ellipse cx="177.947" cy="164.5" rx="27" ry="31.5" fill="white"/>
<ellipse cx="317.947" cy="164.5" rx="27" ry="31.5" fill="white"/>
<ellipse cx="179.947" cy="172" rx="25" ry="24" fill="black"/>
<ellipse cx="317.947" cy="172" rx="25" ry="24" fill="black"/>
<ellipse cx="146.447" cy="150" rx="4.5" ry="4" fill="black"/>
<ellipse cx="347.447" cy="150" rx="4.5" ry="4" fill="black"/>
<circle cx="153.447" cy="137.5" r="4.5" fill="black"/>
<ellipse cx="189.447" cy="161" rx="4.5" ry="4" fill="white"/>
<ellipse cx="329.447" cy="161" rx="4.5" ry="4" fill="white"/>
<circle cx="338.447" cy="137.5" r="4.5" fill="black"/>
<path d="M124.295 382.042L88.9468 231L238.695 270.258L367.877 231L374.947 362.081L238.695 404L124.295 382.042Z" fill="#FFFAED" stroke="#776E5C" stroke-width="4"/>
<path d="M410.017 262.95L359.381 329.513M359.381 329.513L340.398 322.024M359.381 329.513L366.595 346.238M359.381 329.513L340.353 353.03" stroke="black" stroke-width="5"/>
<path d="M74.5881 265.611L134.009 324.465M134.009 324.465L124.117 342.314M134.009 324.465L151.53 319.484M134.009 324.465L154.855 346.386" stroke="black" stroke-width="5"/>
<path d="M256.984 71.8556C257.588 91.881 233.67 92.6406 226.43 87.6343C219.19 82.6279 217.154 74.4694 210.518 61.3277C203.881 48.1861 186.384 35.0444 190.004 35.0444C193.624 35.0444 204.484 33.167 212.931 35.0444C221.378 36.9217 228.618 40.6765 232.841 43.1797C237.064 45.6829 256.381 51.8301 256.984 71.8556Z" fill="#36B139" stroke="#1F671A" stroke-width="3"/>
<path d="M191.554 36.3613C201.46 37.995 207.631 40.1009 218.002 47.1172M239.437 67.5534C245.495 77.8673 245.25 80.3891 247.078 86.914M239.437 67.5534C236.664 62.9716 234.207 59.6974 229.249 55.4913M239.437 67.5534L225.174 69.7046M239.437 67.5534L240.965 56.7975M218.002 47.1172C218.993 47.7881 220.023 48.5039 221.099 49.2684C224.447 51.644 227.086 53.6564 229.249 55.4913M218.002 47.1172L210.911 47.655M218.002 47.1172V41.2015M229.249 55.4913L229.758 47.655M229.249 55.4913L220.08 56.7975" stroke="#D7FFDA"/>
<path d="M257.396 50.1761C247.901 63.6821 248.376 67.9794 250.275 79.6437C252.174 91.308 280.517 85.4608 284.315 84.233C288.113 83.0051 297.275 77.1881 298.699 72.8907C300.123 68.5933 298.699 59.9986 298.699 53.2456C298.699 46.4926 300.123 45.2648 303.921 40.3535C307.719 35.4422 319.113 27.4614 317.214 25.6197C315.315 23.7779 307.244 23.164 298.699 25.6197C290.154 28.0753 266.891 36.67 257.396 50.1761Z" fill="#36B139" stroke="#1F671A" stroke-width="3"/>
<path d="M254.771 83.6949C255.542 76.3473 257.89 70.5175 266.996 55.7296M266.996 55.7296C270.914 50.0535 277.693 42.8225 277.693 42.8225M266.996 55.7296H284.825M266.996 55.7296V47.1249M277.693 42.8225C277.693 42.8225 284.037 37.0517 290.938 33.68M277.693 42.8225H290.938M277.693 42.8225V38.5202M290.938 33.68C300.594 29.2469 306.107 28.379 315.898 26.1509M290.938 33.68L300.107 35.2934M290.938 33.68V30.991" stroke="#D7FFDA"/>
<path d="M24.4388 64.0362L14.1842 80.0781L57.2921 111.11L64.7713 100.945L24.4388 64.0362Z" fill="#DCAC3D"/>
<path d="M2.59578 114.078L1.69192 133.557L48.1419 135.712L48.4664 128.719L2.59578 114.078Z" fill="#DCAC3D"/>
<path d="M28.9689 171.362L20.0817 157.935L47.6552 146.201L51.8259 153.402L28.9689 171.362Z" fill="#DCAC3D"/>
<path d="M24.4388 64.0362L14.1842 80.0781L57.2921 111.11L64.7713 100.945L24.4388 64.0362Z" stroke="#DCAC3D" stroke-width="2"/>
<path d="M2.59578 114.078L1.69192 133.557L48.1419 135.712L48.4664 128.719L2.59578 114.078Z" stroke="#DCAC3D" stroke-width="2"/>
<path d="M28.9689 171.362L20.0817 157.935L47.6552 146.201L51.8259 153.402L28.9689 171.362Z" stroke="#DCAC3D" stroke-width="2"/>
<path d="M469.901 84.9039L480.156 100.946L437.048 131.977L429.569 121.813L469.901 84.9039Z" fill="#DCAC3D"/>
<path d="M491.744 134.945L492.648 154.424L446.198 156.58L445.874 149.587L491.744 134.945Z" fill="#DCAC3D"/>
<path d="M465.371 192.229L474.258 178.803L446.685 167.068L442.514 174.269L465.371 192.229Z" fill="#DCAC3D"/>
<path d="M469.901 84.9039L480.156 100.946L437.048 131.977L429.569 121.813L469.901 84.9039Z" stroke="#DCAC3D" stroke-width="2"/>
<path d="M491.744 134.945L492.648 154.424L446.198 156.58L445.874 149.587L491.744 134.945Z" stroke="#DCAC3D" stroke-width="2"/>
<path d="M465.371 192.229L474.258 178.803L446.685 167.068L442.514 174.269L465.371 192.229Z" stroke="#DCAC3D" stroke-width="2"/>
<path d="M424.851 28.4021C424.351 23.9021 413.851 18.9021 417.351 14.9021C420.851 10.9021 424.851 17.4021 429.851 14.9021C434.851 12.4021 436.351 16.4021 437.351 20.9021C438.351 25.4021 436.351 26.4021 434.351 28.4021C432.351 30.4021 438.851 36.4021 434.351 38.4021C429.851 40.4021 429.851 37.4021 426.851 35.9021C423.851 34.4021 425.351 32.9021 424.851 28.4021Z" fill="#EDEDED"/>
<path d="M453.351 2.40213C455.851 0.902129 457.851 3.90213 457.851 6.40213C457.851 8.90213 457.351 11.9021 455.851 12.9021C454.351 13.9021 456.851 17.9021 454.351 20.4021C451.851 22.9021 448.351 18.4021 448.851 14.9021C449.351 11.4021 451.351 12.4021 452.351 9.90213C453.351 7.40213 450.851 3.90213 453.351 2.40213Z" fill="#EDEDED"/>
<path d="M424.851 28.4021C424.351 23.9021 413.851 18.9021 417.351 14.9021C420.851 10.9021 424.851 17.4021 429.851 14.9021C434.851 12.4021 436.351 16.4021 437.351 20.9021C438.351 25.4021 436.351 26.4021 434.351 28.4021C432.351 30.4021 438.851 36.4021 434.351 38.4021C429.851 40.4021 429.851 37.4021 426.851 35.9021C423.851 34.4021 425.351 32.9021 424.851 28.4021Z" stroke="#4C4C4C" stroke-width="3"/>
<path d="M453.351 2.40213C455.851 0.902129 457.851 3.90213 457.851 6.40213C457.851 8.90213 457.351 11.9021 455.851 12.9021C454.351 13.9021 456.851 17.9021 454.351 20.4021C451.851 22.9021 448.351 18.4021 448.851 14.9021C449.351 11.4021 451.351 12.4021 452.351 9.90213C453.351 7.40213 450.851 3.90213 453.351 2.40213Z" stroke="#4C4C4C" stroke-width="3"/>
<path d="M386.851 61.4018C383.756 57.8379 381.351 63.4018 375.351 61.4018C369.351 59.4017 371.018 54.0684 369.351 50.4017C369.351 50.4017 365.351 43.4017 370.851 37.9017C376.351 32.4017 383.351 39.4017 383.351 39.4017C383.351 39.4017 388.351 40.4017 389.851 39.4017C391.351 38.4017 390.351 36.9017 392.351 35.4017C394.351 33.9017 400.351 33.4017 404.351 36.4017C408.351 39.4017 408.351 44.9017 408.351 44.9017C408.351 44.9017 420.351 46.4018 416.851 54.9018C413.351 63.4017 405.851 62.4018 405.851 62.4018C405.851 62.4018 405.851 71.4017 396.351 68.9017C386.851 66.4017 386.851 61.4018 386.851 61.4018Z" fill="#EDEDED" stroke="#4C4C4C" stroke-width="4"/>
</svg>
