<svg width="528" height="405" viewBox="0 0 528 405" fill="none" xmlns="http://www.w3.org/2000/svg">
<path d="M266.521 353.215L119.69 399.133C113.128 401.185 106.048 398.17 102.981 392.017L86.9017 359.761" stroke="black" stroke-width="5"/>
<path d="M190.179 311.35L43.348 357.269C36.7869 359.32 29.7068 356.305 26.6399 350.153L10.5601 317.896" stroke="black" stroke-width="5"/>
<path d="M256.571 114.059C256.571 114.059 265.706 77.2401 316.965 74.3636C368.224 71.4871 379.897 114.059 379.897 114.059C379.897 114.059 394.107 83.5683 430.648 103.128C467.189 122.689 445.874 153.179 445.874 153.179C445.874 153.179 461.607 141.673 479.37 176.191C497.133 210.709 467.189 233.146 467.189 233.146C467.189 233.146 482.922 260.185 474.295 283.197C465.667 306.208 423.543 302.181 423.543 302.181C423.543 302.181 398.675 365.464 316.965 363.163C235.255 360.862 220.537 319.44 220.537 319.44C220.537 319.44 173.338 323.467 161.665 283.197C149.992 242.926 180.443 221.064 180.443 221.064C180.443 221.064 165.725 199.778 169.278 164.685C172.831 129.592 197.699 129.592 197.699 129.592C197.699 129.592 204.804 103.128 227.642 103.128C250.48 103.128 256.571 114.059 256.571 114.059Z" fill="#ADABAE" stroke="#4C4C4C" stroke-width="6"/>
<path d="M297.485 275.614L289.965 273.324L287.357 276.625L277.38 271.539L267.251 272.549L258.503 268.861L248.374 269.871L270.768 247.759L297.485 275.614Z" fill="#6E6D6F" stroke="black" stroke-width="3"/>
<ellipse cx="223.5" cy="223.724" rx="24.5" ry="25.5" fill="white"/>
<ellipse cx="347.5" cy="247.224" rx="25.5" ry="24" fill="white"/>
<ellipse cx="219" cy="229.224" rx="23" ry="18" fill="black"/>
<ellipse cx="340" cy="249.724" rx="23" ry="18.5" fill="black"/>
<circle cx="194.5" cy="205.724" r="4.5" fill="black"/>
<circle cx="377" cy="233.224" r="4" fill="black"/>
<circle cx="200.5" cy="193.724" r="4.5" fill="black"/>
<ellipse cx="213.5" cy="226.724" rx="4.5" ry="3.5" fill="white"/>
<ellipse cx="335" cy="249.724" rx="4" ry="4.5" fill="white"/>
<ellipse cx="366.5" cy="222.724" rx="3.5" ry="4.5" fill="black"/>
<path d="M308.815 136.857C309.544 159.782 280.637 160.652 271.887 154.92C263.136 149.189 260.676 139.85 252.654 124.805C244.633 109.761 223.486 94.7164 227.862 94.7164C232.237 94.7164 245.362 92.5672 255.571 94.7164C265.78 96.8656 274.53 101.164 279.635 104.03C284.739 106.895 308.086 113.932 308.815 136.857Z" fill="#DCAC3D" stroke="#67501A" stroke-width="3"/>
<path d="M229.735 96.2241C241.707 98.0943 249.166 100.505 261.7 108.537M287.606 131.932C294.928 143.739 294.633 146.626 296.841 154.096M287.606 131.932C284.255 126.687 281.285 122.939 275.293 118.124M287.606 131.932L270.368 134.395M287.606 131.932L289.453 119.619M261.7 108.537C262.898 109.305 264.143 110.125 265.443 111C269.49 113.72 272.679 116.023 275.293 118.124M261.7 108.537L253.13 109.153M261.7 108.537V101.765M275.293 118.124L275.909 109.153M275.293 118.124L264.211 119.619" stroke="#FFF3D7"/>
<path d="M306.171 123.727C294.695 139.189 295.269 144.108 297.564 157.461C299.86 170.814 334.116 164.12 338.706 162.715C343.296 161.309 354.369 154.65 356.09 149.73C357.812 144.811 356.09 134.972 356.09 127.241C356.09 119.51 357.812 118.105 362.402 112.482C366.992 106.86 380.763 97.7238 378.468 95.6154C376.173 93.507 366.418 92.8042 356.09 95.6154C345.762 98.4266 317.647 108.266 306.171 123.727Z" fill="#DCAC3D" stroke="#67501A" stroke-width="3"/>
<path d="M302.998 162.099C303.93 153.688 306.768 147.014 317.774 130.085M317.774 130.085C322.508 123.587 330.702 115.31 330.702 115.31M317.774 130.085H339.322M317.774 130.085V120.235M330.702 115.31C330.702 115.31 338.37 108.703 346.709 104.843M330.702 115.31H346.709M330.702 115.31V110.384M346.709 104.843C358.381 99.7684 365.043 98.7748 376.877 96.2241M346.709 104.843L357.791 106.69M346.709 104.843V101.765" stroke="#FFF3D7"/>
<path d="M312.503 319.081C314.171 315.762 328.646 294.08 340.726 283.029C340.726 283.029 358.544 321.385 359.871 325.881C361.197 330.376 358.241 348.984 331.803 345.189C305.365 341.394 310.835 322.4 312.503 319.081Z" fill="#5B94D2" stroke="#264D77" stroke-width="4"/>
<path d="M14.8512 50.2241C28.2876 63.0334 34.8759 70.1965 14.8512 82.3498C-1.87535 95.5843 -2.68729 101.79 14.8512 110.151C31.2987 120.246 33.4347 126.65 14.8512 140.423C-0.603148 152.442 4.29484 158.161 14.8512 168.224" stroke="#5B94D2" stroke-width="4"/>
<path d="M57.3569 50.2241C70.2765 63.0334 76.6114 70.1965 57.3569 82.3498C41.2737 95.5843 40.493 101.79 57.3569 110.151C73.1718 120.246 75.2257 126.65 57.3569 140.423C42.497 152.442 47.2066 158.161 57.3569 168.224" stroke="#5B94D2" stroke-width="4"/>
<path d="M106.357 50.2241C119.277 63.0334 125.611 70.1965 106.357 82.3498C90.2737 95.5843 89.493 101.79 106.357 110.151C122.172 120.246 124.226 126.65 106.357 140.423C91.497 152.442 96.2066 158.161 106.357 168.224" stroke="#5B94D2" stroke-width="4"/>
<path d="M141 272.419L194.947 261.295M194.947 261.295L201.171 273.274M194.947 261.295L198.571 249.833M194.947 261.295L214.573 257.859" stroke="black" stroke-width="5"/>
<path d="M404.66 341.167L371.199 297.414M371.199 297.414L379.284 286.603M371.199 297.414L359.302 299.131M371.199 297.414L359.577 281.23" stroke="black" stroke-width="5"/>
<path d="M492.977 38.4365C490.711 34.5166 479.087 34.1567 480.685 29.0876C482.283 24.0184 488.557 28.3634 492.132 24.0652C495.706 19.7669 498.686 22.8271 501.41 26.5461C504.134 30.2651 502.704 31.9844 501.677 34.6195C500.649 37.2545 509.012 40.1373 505.694 43.7768C502.377 47.4163 501.172 44.6691 497.822 44.5009C494.472 44.3327 495.243 42.3564 492.977 38.4365Z" fill="#ADABAE"/>
<path d="M508.629 3.17641C510.315 0.798331 513.352 2.74194 514.357 5.03127C515.361 7.3206 516.109 10.2687 515.137 11.7871C514.165 13.3055 518.062 15.964 516.777 19.2578C515.492 22.5516 510.479 19.8371 509.53 16.4311C508.582 13.0252 510.815 13.1373 510.727 10.4462C510.638 7.75506 506.942 5.55448 508.629 3.17641Z" fill="#ADABAE"/>
<path d="M492.977 38.4365C490.711 34.5166 479.087 34.1567 480.685 29.0876C482.283 24.0184 488.557 28.3634 492.132 24.0652C495.706 19.7669 498.686 22.8271 501.41 26.5461C504.134 30.2651 502.704 31.9844 501.677 34.6195C500.649 37.2545 509.012 40.1373 505.694 43.7768C502.377 47.4163 501.172 44.6691 497.822 44.5009C494.472 44.3327 495.243 42.3564 492.977 38.4365Z" stroke="#4C4C4C" stroke-width="3"/>
<path d="M508.629 3.17641C510.315 0.798331 513.352 2.74194 514.357 5.03127C515.361 7.3206 516.109 10.2687 515.137 11.7871C514.165 13.3055 518.062 15.964 516.777 19.2578C515.492 22.5516 510.479 19.8371 509.53 16.4311C508.582 13.0252 510.815 13.1373 510.727 10.4462C510.638 7.75506 506.942 5.55448 508.629 3.17641Z" stroke="#4C4C4C" stroke-width="3"/>
<path d="M471.439 83.9237C467.172 81.9039 467.206 87.965 460.908 88.5443C454.61 89.1236 453.993 83.57 450.994 80.882C450.994 80.882 444.518 76.079 447.345 68.8327C450.171 61.5863 459.394 65.1839 459.394 65.1839C459.394 65.1839 464.375 64.0907 465.346 62.5722C466.318 61.0538 464.8 60.082 466.029 57.9048C467.257 55.7277 472.551 52.859 477.419 53.999C482.287 55.1391 484.497 60.1756 484.497 60.1756C484.497 60.1756 496.089 56.7277 496.299 65.9177C496.509 75.1077 489.239 77.2054 489.239 77.2054C489.239 77.2054 492.855 85.4469 483.151 86.9746C473.448 88.5023 471.439 83.9237 471.439 83.9237Z" fill="#ADABAE" stroke="#4C4C4C" stroke-width="4"/>
</svg>
