<svg width="219" height="148" viewBox="0 0 219 148" fill="none" xmlns="http://www.w3.org/2000/svg">
<path d="M91 107L57.875 97.5263M57.875 97.5263V89M57.875 97.5263L52.5625 102.895M57.875 97.5263L46 93.7368" stroke="black" stroke-width="2"/>
<path d="M113.507 54.7486C113.507 54.7486 117.206 41.1166 137.961 40.0516C158.716 38.9866 163.443 54.7486 163.443 54.7486C163.443 54.7486 169.197 43.4596 183.993 50.7016C198.788 57.9436 190.157 69.2325 190.157 69.2325C190.157 69.2325 196.528 64.9726 203.72 77.7525C210.913 90.5325 198.788 98.8395 198.788 98.8395C198.788 98.8395 205.159 108.85 201.665 117.37C198.172 125.89 181.116 124.399 181.116 124.399C181.116 124.399 171.046 147.829 137.961 146.977C104.876 146.125 98.9168 130.789 98.9168 130.789C98.9168 130.789 79.8056 132.28 75.0792 117.37C70.3527 102.46 82.6825 94.3665 82.6825 94.3665C82.6825 94.3665 76.7231 86.4855 78.1616 73.4925C79.6001 60.4996 89.6694 60.4996 89.6694 60.4996C89.6694 60.4996 92.5464 50.7016 101.794 50.7016C111.041 50.7016 113.507 54.7486 113.507 54.7486Z" fill="#EDEDED" stroke="#4C4C4C" stroke-width="2"/>
<path d="M106 98.8308L108.357 99.2462L109 98L112.214 99.2462L115.214 98.4154L118 99.2462L121 98.4154L115.214 107L106 98.8308Z" fill="#BEBEBE" stroke="black"/>
<path d="M156 126L122.875 116.526M122.875 116.526V108M122.875 116.526L117.562 121.895M122.875 116.526L111 112.737" stroke="black" stroke-width="2"/>
<path d="M201.185 15.2452C200.93 12.8172 195.58 10.1195 197.363 7.96131C199.147 5.80312 201.185 9.31018 203.733 7.96131C206.28 6.61244 207.045 8.77063 207.554 11.1986C208.064 13.6266 207.045 14.1661 206.026 15.2452C205.006 16.3243 208.319 19.5616 206.026 20.6407C203.733 21.7198 203.733 20.1011 202.204 19.2918C200.675 18.4825 201.44 17.6732 201.185 15.2452Z" fill="#EDEDED"/>
<path d="M215.707 1.21697C216.981 0.407647 218 2.02629 218 3.37516C218 4.72402 217.745 6.34266 216.981 6.88221C216.217 7.42176 217.49 9.57995 216.217 10.9288C214.943 12.2777 213.159 9.84972 213.414 7.96131C213.669 6.07289 214.688 6.61244 215.197 5.26357C215.707 3.9147 214.433 2.02629 215.707 1.21697Z" fill="#EDEDED"/>
<path d="M201.185 15.2452C200.93 12.8172 195.58 10.1195 197.363 7.96131C199.147 5.80312 201.185 9.31018 203.733 7.96131C206.28 6.61244 207.045 8.77063 207.554 11.1986C208.064 13.6266 207.045 14.1661 206.026 15.2452C205.006 16.3243 208.319 19.5616 206.026 20.6407C203.733 21.7198 203.733 20.1011 202.204 19.2918C200.675 18.4825 201.44 17.6732 201.185 15.2452Z" stroke="#4C4C4C" stroke-width="2"/>
<path d="M215.707 1.21697C216.981 0.407647 218 2.02629 218 3.37516C218 4.72402 217.745 6.34266 216.981 6.88221C216.217 7.42176 217.49 9.57995 216.217 10.9288C214.943 12.2777 213.159 9.84972 213.414 7.96131C213.669 6.07289 214.688 6.61244 215.197 5.26357C215.707 3.9147 214.433 2.02629 215.707 1.21697Z" stroke="#4C4C4C" stroke-width="2"/>
<path d="M195.921 41.7065C194.296 39.7791 193.035 42.7882 189.886 41.7065C186.737 40.6249 187.612 37.7405 186.737 35.7575C186.737 35.7575 184.638 31.9717 187.524 28.9971C190.411 26.0226 194.084 29.8084 194.084 29.8084C194.084 29.8084 196.708 30.3492 197.495 29.8084C198.282 29.2676 197.758 28.4563 198.807 27.6451C199.857 26.8338 203.005 26.5634 205.104 28.1859C207.204 29.8084 207.204 32.7829 207.204 32.7829C207.204 32.7829 213.501 33.5942 211.664 38.1912C209.827 42.7882 205.892 42.2474 205.892 42.2474C205.892 42.2474 205.892 47.1148 200.906 45.7627C195.921 44.4107 195.921 41.7065 195.921 41.7065Z" fill="#EDEDED" stroke="#4C4C4C" stroke-width="2"/>
<path d="M134.229 44.9999C134.478 53.4056 124.592 53.7245 121.599 51.623C118.606 49.5216 117.765 46.0971 115.021 40.5809C112.278 35.0647 105.046 29.5485 106.542 29.5485C108.039 29.5485 112.528 28.7604 116.019 29.5485C119.51 30.3365 122.503 31.9126 124.249 32.9633C125.995 34.014 133.979 36.5943 134.229 44.9999Z" fill="#36B139" stroke="#1F671A" stroke-width="2"/>
<path d="M107.183 30.1011C111.277 30.7868 113.828 31.6708 118.115 34.6158M126.975 43.1939C129.479 47.5232 129.378 48.5817 130.134 51.3205M126.975 43.1939C125.829 41.2707 124.813 39.8964 122.764 38.1309M126.975 43.1939L121.08 44.0969M126.975 43.1939L127.607 38.6791M118.115 34.6158C118.525 34.8974 118.951 35.1979 119.395 35.5188C120.779 36.516 121.87 37.3606 122.764 38.1309M118.115 34.6158L115.184 34.8416M118.115 34.6158V32.1327M122.764 38.1309L122.975 34.8416M122.764 38.1309L118.974 38.6791" stroke="#D7FFDA"/>
<path d="M131.697 36.3633C127.772 42.0325 127.968 43.8363 128.753 48.7324C129.538 53.6284 141.254 51.1741 142.824 50.6587C144.394 50.1433 148.181 47.7016 148.77 45.8978C149.358 44.094 148.77 40.4864 148.77 37.6518C148.77 34.8172 149.358 34.3018 150.928 32.2403C152.498 30.1788 157.208 26.8289 156.423 26.0558C155.638 25.2828 152.302 25.0251 148.77 26.0558C145.237 27.0866 135.622 30.6942 131.697 36.3633Z" fill="#36B139" stroke="#1F671A" stroke-width="2"/>
<path d="M130.612 50.4328C130.931 47.3487 131.901 44.9017 135.665 38.6944M135.665 38.6944C137.285 36.3119 140.087 33.2767 140.087 33.2767M135.665 38.6944H143.035M135.665 38.6944V35.0826M140.087 33.2767C140.087 33.2767 142.709 30.8544 145.561 29.4391M140.087 33.2767H145.561M140.087 33.2767V31.4708M145.561 29.4391C149.553 27.5784 151.832 27.214 155.879 26.2788M145.561 29.4391L149.351 30.1164M145.561 29.4391V28.3105" stroke="#D7FFDA"/>
<ellipse cx="133.5" cy="84" rx="8.5" ry="10" fill="white"/>
<circle cx="133.5" cy="86.5" r="7.5" fill="black"/>
<ellipse cx="142.5" cy="80" rx="1.5" ry="1" fill="black"/>
<ellipse cx="137.5" cy="83" rx="1.5" ry="2" fill="white"/>
<circle cx="140" cy="75" r="1" fill="black"/>
<ellipse cx="99" cy="83.5" rx="8" ry="9.5" fill="white"/>
<ellipse cx="99.5" cy="86" rx="7.5" ry="7" fill="black"/>
<circle cx="90" cy="80" r="1" fill="black"/>
<circle cx="92" cy="75" r="1" fill="black"/>
<circle cx="102.5" cy="82.5" r="1.5" fill="white"/>
<path d="M47.8764 74.5026C47.1966 73.7491 46.4974 74.7266 45.0789 74.1866C43.6605 73.6466 44.1755 72.6921 43.8454 71.9585C43.8454 71.9585 43.0162 70.5357 44.4671 69.6552C45.918 68.7748 47.477 70.2801 47.477 70.2801C47.477 70.2801 48.6727 70.605 49.0582 70.4587C49.4436 70.3123 49.2312 70.0035 49.7485 69.7771C50.2658 69.5508 51.7356 69.6218 52.647 70.2944C53.5584 70.967 53.4454 71.9986 53.4454 71.9986C53.4454 71.9986 56.3336 72.6097 55.3076 74.1078C54.2815 75.6059 52.4777 75.2123 52.4777 75.2123C52.4777 75.2123 52.2928 76.9003 50.0332 76.1704C47.7736 75.4404 47.8764 74.5026 47.8764 74.5026Z" fill="#ADABAE" stroke="#4C4C4C"/>
<path d="M32.849 43.3811C32.1777 44.1088 33.5636 44.0663 33.3859 45.1188C33.2083 46.1713 31.9096 46.3085 31.148 46.8278C31.148 46.8278 29.7324 47.9428 28.2165 47.5129C26.7007 47.0831 27.9763 45.5148 27.9763 45.5148C27.9763 45.5148 27.9717 44.6863 27.6728 44.5326C27.3738 44.3789 27.0771 44.6394 26.6404 44.4466C26.2036 44.2538 25.809 43.3837 26.309 42.5605C26.809 41.7372 28.068 41.336 28.068 41.336C28.068 41.336 27.8511 39.4134 29.9603 39.3222C32.0695 39.2311 32.1907 40.4373 32.1907 40.4373C32.1907 40.4373 34.251 39.7808 34.1223 41.3986C33.9936 43.0164 32.849 43.3811 32.849 43.3811Z" fill="#ADABAE" stroke="#4C4C4C"/>
<path d="M59.5713 56.996C58.5097 56.1666 59.2027 58.0569 58.0389 57.9422C56.8751 57.8275 56.1257 56.068 55.2358 55.0898C55.2358 55.0898 53.4277 53.2896 53.1588 51.1641C52.8899 49.0385 55.0977 50.5919 55.0977 50.5919C55.0977 50.5919 55.9461 50.4846 55.9638 50.057C55.9815 49.6294 55.5751 49.2554 55.5683 48.6346C55.5616 48.0138 56.2701 47.368 57.3495 47.9514C58.429 48.5349 59.4308 50.2079 59.4308 50.2079C59.4308 50.2079 61.303 49.6768 62.3849 52.5504C63.4667 55.4239 62.2852 55.7368 62.2852 55.7368C62.2852 55.7368 63.9245 58.4745 62.2033 58.4957C60.482 58.5169 59.5713 56.996 59.5713 56.996Z" fill="#ADABAE" stroke="#4C4C4C"/>
<path d="M7.17764 31.9433C6.80154 28.5441 -1.09649 24.7673 1.53619 21.7458C4.16887 18.7244 7.17764 23.6342 10.9386 21.7458C14.6996 19.8574 15.8279 22.8789 16.5801 26.278C17.3322 29.6772 15.8279 30.4325 14.3235 31.9433C12.8191 33.454 17.7083 37.9862 14.3235 39.4969C10.9386 41.0077 10.9386 38.7416 8.68202 37.6085C6.42544 36.4755 7.55373 35.3424 7.17764 31.9433Z" fill="#ADABAE"/>
<path d="M28.6151 12.3038C30.4956 11.1707 32 13.4368 32 15.3252C32 17.2136 31.6239 19.4797 30.4956 20.2351C29.3673 20.9905 31.2478 24.0119 29.3673 25.9003C27.4868 27.7888 24.8542 24.3896 25.2303 21.7458C25.6064 19.102 27.1107 19.8574 27.8629 17.969C28.6151 16.0806 26.7347 13.4368 28.6151 12.3038Z" fill="#ADABAE"/>
<path d="M7.17764 31.9433C6.80154 28.5441 -1.09649 24.7673 1.53619 21.7458C4.16887 18.7244 7.17764 23.6342 10.9386 21.7458C14.6996 19.8574 15.8279 22.8789 16.5801 26.278C17.3322 29.6772 15.8279 30.4325 14.3235 31.9433C12.8191 33.454 17.7083 37.9862 14.3235 39.4969C10.9386 41.0077 10.9386 38.7416 8.68202 37.6085C6.42544 36.4755 7.55373 35.3424 7.17764 31.9433Z" stroke="#4C4C4C"/>
<path d="M28.6151 12.3038C30.4956 11.1707 32 13.4368 32 15.3252C32 17.2136 31.6239 19.4797 30.4956 20.2351C29.3673 20.9905 31.2478 24.0119 29.3673 25.9003C27.4868 27.7888 24.8542 24.3896 25.2303 21.7458C25.6064 19.102 27.1107 19.8574 27.8629 17.969C28.6151 16.0806 26.7347 13.4368 28.6151 12.3038Z" stroke="#4C4C4C"/>
<path d="M27.587 62.4103C27.3686 61.3178 22.7827 60.1038 24.3113 59.1326C25.84 58.1614 27.587 59.7396 29.7708 59.1326C31.9546 58.5256 32.6097 59.4968 33.0465 60.5894C33.4832 61.6819 32.6097 61.9247 31.7362 62.4103C30.8627 62.8959 33.7016 64.3527 31.7362 64.8383C29.7708 65.3239 29.7708 64.5955 28.4605 64.2313C27.1503 63.8671 27.8054 63.5029 27.587 62.4103Z" fill="#ADABAE"/>
<path d="M40.0346 56.0976C41.1265 55.7334 42 56.4618 42 57.0688C42 57.6758 41.7816 58.4042 41.1265 58.647C40.4714 58.8898 41.5632 59.861 40.4714 60.468C39.3795 61.075 37.8508 59.9824 38.0692 59.1326C38.2876 58.2828 39.1611 58.5256 39.5978 57.9186C40.0346 57.3116 38.9427 56.4618 40.0346 56.0976Z" fill="#ADABAE"/>
<path d="M27.587 62.4103C27.3686 61.3178 22.7827 60.1038 24.3113 59.1326C25.84 58.1614 27.587 59.7396 29.7708 59.1326C31.9546 58.5256 32.6097 59.4968 33.0465 60.5894C33.4832 61.6819 32.6097 61.9247 31.7362 62.4103C30.8627 62.8959 33.7016 64.3527 31.7362 64.8383C29.7708 65.3239 29.7708 64.5955 28.4605 64.2313C27.1503 63.8671 27.8054 63.5029 27.587 62.4103Z" stroke="#4C4C4C"/>
<path d="M40.0346 56.0976C41.1265 55.7334 42 56.4618 42 57.0688C42 57.6758 41.7816 58.4042 41.1265 58.647C40.4714 58.8898 41.5632 59.861 40.4714 60.468C39.3795 61.075 37.8508 59.9824 38.0692 59.1326C38.2876 58.2828 39.1611 58.5256 39.5978 57.9186C40.0346 57.3116 38.9427 56.4618 40.0346 56.0976Z" stroke="#4C4C4C"/>
</svg>
