<svg width="564" height="483" viewBox="0 0 564 483" fill="none" xmlns="http://www.w3.org/2000/svg">
<path d="M167.555 280.676L168.603 378.046C168.677 384.92 173.731 390.723 180.53 391.741L200.014 394.658" stroke="black" stroke-width="5"/>
<path d="M482.11 222.682L541.418 205.836M541.418 205.836V190.675M541.418 205.836L550.93 215.382M541.418 205.836L562.68 199.098" stroke="black" stroke-width="5"/>
<path d="M218.325 249.739L270.144 282.28M270.144 282.28L281.334 272.203M270.144 282.28L269.415 295.639M270.144 282.28L289.237 293.48" stroke="black" stroke-width="5"/>
<path d="M442.652 131.4C442.652 131.4 436.064 107.636 399.1 105.78C362.136 103.923 353.718 131.4 353.718 131.4C353.718 131.4 343.471 111.721 317.12 124.345C290.769 136.97 306.14 156.649 306.14 156.649C306.14 156.649 294.795 149.223 281.985 171.501C269.176 193.78 290.769 208.261 290.769 208.261C290.769 208.261 279.423 225.712 285.645 240.564C291.867 255.416 322.243 252.817 322.243 252.817C322.243 252.817 340.177 293.661 399.1 292.176C458.024 290.691 468.637 263.956 468.637 263.956C468.637 263.956 502.674 266.556 511.091 240.564C519.509 214.573 497.55 200.463 497.55 200.463C497.55 200.463 508.163 186.725 505.601 164.075C503.04 141.425 485.106 141.425 485.106 141.425C485.106 141.425 479.983 124.345 463.513 124.345C447.044 124.345 442.652 131.4 442.652 131.4Z" fill="#EDEDED" stroke="#4C4C4C" stroke-width="6"/>
<path d="M88.4656 131.361C88.4656 131.361 95.4245 107.879 134.471 106.044C173.518 104.209 182.41 131.361 182.41 131.361C182.41 131.361 193.235 111.915 221.07 124.39C248.906 136.865 232.668 156.311 232.668 156.311C232.668 156.311 244.653 148.973 258.184 170.987C271.715 193.002 248.906 207.312 248.906 207.312C248.906 207.312 260.891 224.557 254.318 239.233C247.746 253.91 215.658 251.341 215.658 251.341C215.658 251.341 196.714 291.702 134.471 290.234C72.2283 288.766 61.0168 262.349 61.0168 262.349C61.0168 262.349 25.0627 264.917 16.1709 239.233C7.27899 213.549 30.4752 199.607 30.4752 199.607C30.4752 199.607 19.2637 186.031 21.9699 163.649C24.6761 141.268 43.6197 141.268 43.6197 141.268C43.6197 141.268 49.0321 124.39 66.4293 124.39C83.8264 124.39 88.4656 131.361 88.4656 131.361Z" fill="#ADABAE" stroke="#4C4C4C" stroke-width="6"/>
<path d="M182.313 226.305L178.229 224.411L176.445 227.43L171.211 223.079L165.342 224.203L160.683 221.081L154.815 222.205L169.58 201.878L182.313 226.305Z" fill="#6E6D6F" stroke="black" stroke-width="3"/>
<path d="M456.725 207.655L452.562 208.419L451.427 206.126L445.751 208.419L440.453 206.891L435.534 208.419L430.236 206.891L440.453 222.682L456.725 207.655Z" fill="#BEBEBE" stroke="black" stroke-width="3"/>
<path d="M428.27 291.388L470.148 379.299C473.105 385.505 480.13 388.646 486.727 386.712L505.632 381.169" stroke="black" stroke-width="5"/>
<path d="M390.503 292.215V390.059C390.503 396.921 395.477 402.772 402.249 403.876L421.406 407" stroke="black" stroke-width="5"/>
<path d="M125.615 292.215V389.993C125.615 396.884 130.63 402.75 137.437 403.822L157.622 407" stroke="black" stroke-width="5"/>
<path d="M339.173 243.233L291.794 281.738M291.794 281.738L297.661 295.11M291.794 281.738L279.456 277.112M291.794 281.738L275.08 296.159" stroke="black" stroke-width="5"/>
<path d="M75.2194 243.233L27.8406 281.738M27.8406 281.738L33.7075 295.11M27.8406 281.738L15.5027 277.112M27.8406 281.738L11.1264 296.159" stroke="black" stroke-width="5"/>
<path d="M406.21 113.827C405.767 128.545 423.346 129.103 428.667 125.424C433.988 121.744 435.484 115.748 440.362 106.089C445.24 96.4302 458.1 86.7715 455.439 86.7715C452.778 86.7715 444.797 85.3916 438.588 86.7715C432.38 88.1513 427.059 90.9109 423.955 92.7507C420.851 94.5905 406.654 99.1085 406.21 113.827Z" fill="#36B139" stroke="#1F671A" stroke-width="3"/>
<path d="M454.3 87.7393C447.019 88.94 442.484 90.4878 434.862 95.6445M419.108 110.665C414.655 118.245 414.835 120.098 413.492 124.894M419.108 110.665C421.145 107.297 422.951 104.891 426.595 101.799M419.108 110.665L429.59 112.246M419.108 110.665L417.984 102.759M434.862 95.6445C434.133 96.1376 433.376 96.6637 432.585 97.2256C430.124 98.9716 428.185 100.451 426.595 101.799M434.862 95.6445L440.073 96.0398M434.862 95.6445V91.2966M426.595 101.799L426.221 96.0398M426.595 101.799L433.334 102.759" stroke="#D7FFDA"/>
<path d="M410.712 98.7055C417.69 108.632 417.341 111.79 415.946 120.363C414.55 128.936 393.718 124.639 390.927 123.736C388.136 122.834 381.402 118.559 380.356 115.4C379.309 112.242 380.356 105.925 380.356 100.961C380.356 95.9982 379.309 95.0958 376.517 91.4862C373.726 87.8765 365.352 82.0108 366.748 80.6572C368.143 79.3036 374.075 78.8524 380.356 80.6572C386.636 82.462 403.733 88.7789 410.712 98.7055Z" fill="#36B139" stroke="#1F671A" stroke-width="3"/>
<path d="M412.642 123.341C412.075 117.94 410.349 113.656 403.656 102.787M403.656 102.787C400.777 98.6151 395.794 93.3005 395.794 93.3005M403.656 102.787H390.553M403.656 102.787V96.4627M395.794 93.3005C395.794 93.3005 391.132 89.0592 386.06 86.5811M395.794 93.3005H386.06M395.794 93.3005V90.1384M386.06 86.5811C378.963 83.3229 374.911 82.6849 367.715 81.0474M386.06 86.5811L379.321 87.7668M386.06 86.5811V84.6047" stroke="#D7FFDA"/>
<ellipse cx="14.3481" cy="17.1074" rx="14.3481" ry="17.1074" transform="matrix(-1 0 0 1 421.406 165.29)" fill="white"/>
<ellipse cx="14.3481" cy="17.1074" rx="14.3481" ry="17.1074" transform="matrix(-1 0 0 1 157.622 165.29)" fill="white"/>
<ellipse cx="13.7963" cy="13.2444" rx="13.7963" ry="13.2444" transform="matrix(-1 0 0 1 421.406 173.016)" fill="black"/>
<circle cx="13.2444" cy="13.2444" r="13.2444" transform="matrix(-1 0 0 1 156.518 173.016)" fill="black"/>
<circle cx="2.2074" cy="2.2074" r="2.2074" transform="matrix(-1 0 0 1 393.814 171.912)" fill="black"/>
<circle cx="2.2074" cy="2.2074" r="2.2074" transform="matrix(-1 0 0 1 130.029 171.912)" fill="black"/>
<ellipse cx="2.75925" cy="3.3111" rx="2.75925" ry="3.3111" transform="matrix(-1 0 0 1 403.747 176.327)" fill="white"/>
<ellipse cx="2.75925" cy="3.3111" rx="2.75925" ry="3.3111" transform="matrix(-1 0 0 1 139.962 176.327)" fill="white"/>
<ellipse cx="2.2074" cy="1.65555" rx="2.2074" ry="1.65555" transform="matrix(-1 0 0 1 398.229 165.29)" fill="black"/>
<ellipse cx="2.2074" cy="1.65555" rx="2.2074" ry="1.65555" transform="matrix(-1 0 0 1 134.444 165.29)" fill="black"/>
<ellipse cx="13.7963" cy="16.5555" rx="13.7963" ry="16.5555" transform="matrix(-1 0 0 1 482.11 165.29)" fill="white"/>
<ellipse cx="13.7963" cy="16.5555" rx="13.7963" ry="16.5555" transform="matrix(-1 0 0 1 218.325 165.29)" fill="white"/>
<ellipse cx="13.2444" cy="12.6926" rx="13.2444" ry="12.6926" transform="matrix(-1 0 0 1 481.006 173.016)" fill="black"/>
<ellipse cx="13.2444" cy="12.6926" rx="13.2444" ry="12.6926" transform="matrix(-1 0 0 1 217.222 173.016)" fill="black"/>
<ellipse cx="2.75925" cy="2.2074" rx="2.75925" ry="2.2074" transform="matrix(-1 0 0 1 487.628 171.912)" fill="black"/>
<ellipse cx="2.75925" cy="2.2074" rx="2.75925" ry="2.2074" transform="matrix(-1 0 0 1 223.844 171.912)" fill="black"/>
<circle cx="1.65555" cy="1.65555" r="1.65555" transform="matrix(-1 0 0 1 483.213 165.29)" fill="black"/>
<circle cx="1.65555" cy="1.65555" r="1.65555" transform="matrix(-1 0 0 1 219.429 165.29)" fill="black"/>
<ellipse cx="1.65555" cy="3.3111" rx="1.65555" ry="3.3111" transform="matrix(-1 0 0 1 464.45 176.327)" fill="white"/>
<ellipse cx="1.65555" cy="3.3111" rx="1.65555" ry="3.3111" transform="matrix(-1 0 0 1 200.666 176.327)" fill="white"/>
<path d="M52.7572 31.1336L74.2704 38.2638M95.7836 45.394L74.2704 38.2638M74.2704 38.2638L81.507 15.7269M74.2704 38.2638L66.4143 57.7339" stroke="#DCAC3D" stroke-width="4"/>
<path d="M468.628 36.6522L447.114 43.7824M425.601 50.9125L447.114 43.7824M447.114 43.7824L439.878 21.2455M447.114 43.7824L454.97 63.2525" stroke="#DCAC3D" stroke-width="4"/>
<ellipse cx="3.77356" cy="3.77532" rx="3.77356" ry="3.77532" transform="matrix(0.787367 -0.616484 0.615007 0.788522 93.9268 4.65283)" fill="#DCAC3D"/>
<ellipse cx="3.77356" cy="3.77532" rx="3.77356" ry="3.77532" transform="matrix(-0.787367 -0.616484 -0.615007 0.788522 382.326 58.7344)" fill="#DCAC3D"/>
<ellipse cx="2.26414" cy="2.26519" rx="2.26414" ry="2.26519" transform="matrix(0.787367 -0.616484 0.615007 0.788522 127.842 26.0474)" fill="#DCAC3D"/>
<ellipse cx="2.26414" cy="2.26519" rx="2.26414" ry="2.26519" transform="matrix(-0.787367 -0.616484 -0.615007 0.788522 393.543 31.5659)" fill="#DCAC3D"/>
<path d="M24.0939 82.0954C24.4287 79.0137 31.4586 75.5896 29.1153 72.8503C26.772 70.111 24.0939 74.5624 20.7464 72.8503C17.3988 71.1383 16.3945 73.8776 15.725 76.9593C15.0555 80.041 16.3945 80.7258 17.7336 82.0954C19.0726 83.4651 14.7208 87.574 17.7336 88.9437C20.7464 90.3133 20.7464 88.2588 22.7549 87.2316C24.7634 86.2044 23.7592 85.1771 24.0939 82.0954Z" fill="#ADABAE"/>
<path d="M5.01282 64.29C3.33904 63.2628 2.00002 65.3173 2.00002 67.0293C2.00002 68.7414 2.33477 70.7959 3.33904 71.4807C4.34331 72.1655 2.66953 74.9048 4.34331 76.6169C6.01709 78.3289 8.36039 75.2472 8.02563 72.8503C7.69087 70.4534 6.35185 71.1383 5.68234 69.4262C5.01282 67.7141 6.68661 65.3173 5.01282 64.29Z" fill="#ADABAE"/>
<path d="M24.0939 82.0954C24.4287 79.0137 31.4586 75.5896 29.1153 72.8503C26.772 70.111 24.0939 74.5624 20.7464 72.8503C17.3988 71.1383 16.3945 73.8776 15.725 76.9593C15.0555 80.041 16.3945 80.7258 17.7336 82.0954C19.0726 83.4651 14.7208 87.574 17.7336 88.9437C20.7464 90.3133 20.7464 88.2588 22.7549 87.2316C24.7634 86.2044 23.7592 85.1771 24.0939 82.0954Z" stroke="#4C4C4C" stroke-width="3"/>
<path d="M5.01282 64.29C3.33904 63.2628 2.00002 65.3173 2.00002 67.0293C2.00002 68.7414 2.33477 70.7959 3.33904 71.4807C4.34331 72.1655 2.66953 74.9048 4.34331 76.6169C6.01709 78.3289 8.36039 75.2472 8.02563 72.8503C7.69087 70.4534 6.35185 71.1383 5.68234 69.4262C5.01282 67.7141 6.68661 65.3173 5.01282 64.29Z" stroke="#4C4C4C" stroke-width="3"/>
<path d="M50.0695 104.029C52.1382 101.678 53.7452 105.349 57.755 104.029C61.7649 102.71 60.651 99.191 61.7649 96.7719C61.7649 96.7719 64.4381 92.1537 60.7624 88.5251C57.0867 84.8966 52.4085 89.5147 52.4085 89.5147C52.4085 89.5147 49.067 90.1745 48.0645 89.5147C47.0621 88.855 47.7304 87.8654 46.3938 86.8758C45.0572 85.8862 41.0473 85.5563 38.3741 87.5355C35.7008 89.5147 35.7008 93.1433 35.7008 93.1433C35.7008 93.1433 27.6811 94.1329 30.0202 99.7408C32.3593 105.349 37.3716 104.689 37.3716 104.689C37.3716 104.689 37.3716 110.626 43.7205 108.977C50.0695 107.328 50.0695 104.029 50.0695 104.029Z" fill="#ADABAE" stroke="#4C4C4C" stroke-width="4"/>
<path d="M254.987 114.738C255.309 111.924 262.057 108.798 259.808 106.297C257.558 103.796 254.987 107.86 251.774 106.297C248.56 104.734 247.596 107.235 246.953 110.048C246.31 112.862 247.596 113.487 248.881 114.738C250.167 115.989 245.989 119.74 248.881 120.991C251.774 122.241 251.774 120.365 253.702 119.428C255.63 118.49 254.666 117.552 254.987 114.738Z" fill="#EDEDED"/>
<path d="M236.669 98.4809C235.063 97.543 233.777 99.4188 233.777 100.982C233.777 102.545 234.098 104.421 235.063 105.046C236.027 105.672 234.42 108.173 236.027 109.736C237.633 111.299 239.883 108.485 239.562 106.297C239.24 104.108 237.955 104.734 237.312 103.17C236.669 101.607 238.276 99.4188 236.669 98.4809Z" fill="#EDEDED"/>
<path d="M254.987 114.738C255.309 111.924 262.057 108.798 259.808 106.297C257.558 103.796 254.987 107.86 251.774 106.297C248.56 104.734 247.596 107.235 246.953 110.048C246.31 112.862 247.596 113.487 248.881 114.738C250.167 115.989 245.989 119.74 248.881 120.991C251.774 122.241 251.774 120.365 253.702 119.428C255.63 118.49 254.666 117.552 254.987 114.738Z" stroke="#4C4C4C" stroke-width="3"/>
<path d="M236.669 98.4809C235.063 97.543 233.777 99.4188 233.777 100.982C233.777 102.545 234.098 104.421 235.063 105.046C236.027 105.672 234.42 108.173 236.027 109.736C237.633 111.299 239.883 108.485 239.562 106.297C239.24 104.108 237.955 104.734 237.312 103.17C236.669 101.607 238.276 99.4188 236.669 98.4809Z" stroke="#4C4C4C" stroke-width="3"/>
<path d="M278.956 136.286C280.956 134.046 282.51 137.542 286.386 136.286C290.262 135.029 289.185 131.678 290.262 129.374C290.262 129.374 292.846 124.976 289.293 121.52C285.74 118.064 281.218 122.462 281.218 122.462C281.218 122.462 277.987 123.091 277.018 122.462C276.049 121.834 276.695 120.892 275.403 119.949C274.111 119.007 270.235 118.692 267.651 120.577C265.067 122.462 265.067 125.918 265.067 125.918C265.067 125.918 257.314 126.861 259.575 132.202C261.837 137.542 266.682 136.914 266.682 136.914C266.682 136.914 266.682 142.569 272.819 140.998C278.956 139.427 278.956 136.286 278.956 136.286Z" fill="#EDEDED" stroke="#4C4C4C" stroke-width="4"/>
<g filter="url(#filter0_f_188_2939)">
<ellipse cx="281.5" cy="412" rx="233.5" ry="51" fill="black" fill-opacity="0.1"/>
</g>
<path d="M141.118 114.167C140.67 128.319 158.436 128.856 163.815 125.318C169.193 121.78 170.705 116.014 175.635 106.726C180.565 97.4385 193.562 88.1507 190.873 88.1507C188.184 88.1507 180.117 86.8239 173.842 88.1507C167.568 89.4775 162.19 92.1312 159.052 93.9003C155.915 95.6694 141.566 100.014 141.118 114.167Z" fill="#DCAC3D" stroke="#67501A" stroke-width="3"/>
<path d="M189.722 89.0811C182.363 90.2356 177.779 91.724 170.076 96.6826M154.153 111.126C149.653 118.415 149.835 120.197 148.477 124.808M154.153 111.126C156.213 107.887 158.038 105.574 161.721 102.601M154.153 111.126L164.748 112.646M154.153 111.126L153.018 103.524M170.076 96.6826C169.339 97.1568 168.574 97.6626 167.775 98.203C165.288 99.8819 163.327 101.304 161.721 102.601M170.076 96.6826L175.343 97.0627M170.076 96.6826V92.5018M161.721 102.601L161.342 97.0627M161.721 102.601L168.532 103.524" stroke="#FFF3D7"/>
<path d="M145.592 101.5C152.645 111.045 152.292 114.082 150.882 122.325C149.471 130.569 128.417 126.437 125.596 125.569C122.774 124.701 115.969 120.59 114.911 117.553C113.853 114.516 114.911 108.442 114.911 103.669C114.911 98.8963 113.853 98.0286 111.032 94.5576C108.211 91.0866 99.7468 85.4463 101.157 84.1447C102.568 82.843 108.563 82.4092 114.911 84.1447C121.259 85.8802 138.539 91.9544 145.592 101.5Z" fill="#DCAC3D" stroke="#67501A" stroke-width="3"/>
<path d="M147.542 125.189C146.97 119.996 145.225 115.876 138.461 105.425M138.461 105.425C135.551 101.413 130.515 96.303 130.515 96.303M138.461 105.425H125.217M138.461 105.425V99.3436M130.515 96.303C130.515 96.303 125.802 92.2245 120.677 89.8416M130.515 96.303H120.677M130.515 96.303V93.2623M120.677 89.8416C113.503 86.7086 109.408 86.0952 102.135 84.5205M120.677 89.8416L113.865 90.9819M120.677 89.8416V87.9412" stroke="#FFF3D7"/>
<defs>
<filter id="filter0_f_188_2939" x="28" y="341" width="507" height="142" filterUnits="userSpaceOnUse" color-interpolation-filters="sRGB">
<feFlood flood-opacity="0" result="BackgroundImageFix"/>
<feBlend mode="normal" in="SourceGraphic" in2="BackgroundImageFix" result="shape"/>
<feGaussianBlur stdDeviation="10" result="effect1_foregroundBlur_188_2939"/>
</filter>
</defs>
</svg>
