<svg width="522" height="566" viewBox="0 0 522 566" fill="none" xmlns="http://www.w3.org/2000/svg">
<g filter="url(#filter0_f_188_2759)">
<ellipse cx="268.5" cy="495" rx="233.5" ry="51" fill="black" fill-opacity="0.1"/>
</g>
<ellipse cx="1.96978" cy="1.97803" rx="1.96978" ry="1.97803" transform="matrix(0.782743 -0.622346 0.60913 0.79307 66.5312 224.096)" fill="#DCAC3D"/>
<path d="M220 248L143.444 225.895M143.444 225.895V206M143.444 225.895L131.167 238.421M143.444 225.895L116 217.053" stroke="black" stroke-width="5"/>
<path d="M271.285 127.908C271.285 127.908 279.832 96.5672 327.789 94.1187C375.746 91.6702 386.667 127.908 386.667 127.908C386.667 127.908 399.962 101.954 434.149 118.604C468.337 135.253 448.394 161.208 448.394 161.208C448.394 161.208 463.114 151.414 479.732 180.796C496.351 210.177 468.337 229.276 468.337 229.276C468.337 229.276 483.056 252.292 474.984 271.88C466.912 291.468 427.502 288.04 427.502 288.04C427.502 288.04 404.236 341.907 327.789 339.948C251.343 337.989 237.573 302.731 237.573 302.731C237.573 302.731 193.414 306.159 182.494 271.88C171.573 237.601 200.062 218.992 200.062 218.992C200.062 218.992 186.292 200.873 189.616 171.002C192.94 141.13 216.206 141.13 216.206 141.13C216.206 141.13 222.853 118.604 244.22 118.604C265.587 118.604 271.285 127.908 271.285 127.908Z" fill="#EDEDED" stroke="#4C4C4C" stroke-width="6"/>
<path d="M253 228.938L258.343 229.908L259.8 227L267.086 229.908L273.886 227.969L280.2 229.908L287 227.969L273.886 248L253 228.938Z" fill="#BEBEBE" stroke="black" stroke-width="3"/>
<path d="M290.051 338.63L234.099 457.902C231.182 464.118 224.214 467.248 217.645 465.293L189.646 456.956" stroke="black" stroke-width="5"/>
<path d="M339 340V472.453C339 479.322 334.016 485.177 327.235 486.273L298 491" stroke="black" stroke-width="5"/>
<path d="M370 291L292.708 268.895M292.708 268.895V249M292.708 268.895L280.313 281.421M292.708 268.895L265 260.053" stroke="black" stroke-width="5"/>
<path d="M473.565 36.1885C472.983 30.3614 460.754 23.8868 464.83 18.7071C468.907 13.5275 473.565 21.9444 479.389 18.7071C485.212 15.4699 486.959 20.6495 488.124 26.4766C489.289 32.3037 486.959 33.5987 484.63 36.1885C482.301 38.7783 489.871 46.5478 484.63 49.1376C479.389 51.7274 479.389 47.8427 475.895 45.9003C472.401 43.958 474.148 42.0156 473.565 36.1885Z" fill="#EDEDED"/>
<path d="M506.759 2.52072C509.671 0.578352 512 4.46309 512 7.70037C512 10.9377 511.418 14.8224 509.671 16.1173C507.924 17.4122 510.835 22.5919 507.924 25.8292C505.012 29.0664 500.935 23.2393 501.518 18.7071C502.1 14.1749 504.43 15.4699 505.594 12.2326C506.759 8.99528 503.847 4.46309 506.759 2.52072Z" fill="#EDEDED"/>
<path d="M473.565 36.1885C472.983 30.3614 460.754 23.8868 464.83 18.7071C468.907 13.5275 473.565 21.9444 479.389 18.7071C485.212 15.4699 486.959 20.6495 488.124 26.4766C489.289 32.3037 486.959 33.5987 484.63 36.1885C482.301 38.7783 489.871 46.5478 484.63 49.1376C479.389 51.7274 479.389 47.8427 475.895 45.9003C472.401 43.958 474.148 42.0156 473.565 36.1885Z" stroke="#4C4C4C" stroke-width="3"/>
<path d="M506.759 2.52072C509.671 0.578352 512 4.46309 512 7.70037C512 10.9377 511.418 14.8224 509.671 16.1173C507.924 17.4122 510.835 22.5919 507.924 25.8292C505.012 29.0664 500.935 23.2393 501.518 18.7071C502.1 14.1749 504.43 15.4699 505.594 12.2326C506.759 8.99528 503.847 4.46309 506.759 2.52072Z" stroke="#4C4C4C" stroke-width="3"/>
<path d="M460.894 97.6053C457.145 92.939 454.233 100.224 446.967 97.6053C439.701 94.9866 441.719 88.0033 439.701 83.2023C439.701 83.2023 434.857 74.0367 441.518 66.8352C448.178 59.6337 456.656 68.7992 456.656 68.7992C456.656 68.7992 462.711 70.1086 464.527 68.7992C466.344 67.4899 465.133 65.5258 467.555 63.5618C469.977 61.5977 477.243 60.943 482.087 64.8711C486.931 68.7992 486.931 76.0007 486.931 76.0007C486.931 76.0007 501.464 77.9648 497.225 89.0944C492.986 100.224 483.904 98.9147 483.904 98.9147C483.904 98.9147 483.904 110.699 472.399 107.426C460.894 104.152 460.894 97.6053 460.894 97.6053Z" fill="#EDEDED" stroke="#4C4C4C" stroke-width="4"/>
<path d="M318.681 104.615C319.257 124.013 296.442 124.748 289.536 119.899C282.63 115.05 280.688 107.147 274.357 94.4171C268.026 81.6874 251.336 68.9577 254.789 68.9577C258.243 68.9577 268.602 67.1391 276.659 68.9577C284.716 70.7762 291.622 74.4132 295.651 76.838C299.68 79.2627 318.106 85.2172 318.681 104.615Z" fill="#36B139" stroke="#1F671A" stroke-width="3"/>
<path d="M256.268 70.2334C265.717 71.8159 271.604 73.8558 281.496 80.6521M301.943 100.448C307.721 110.438 307.488 112.881 309.231 119.201M301.943 100.448C299.298 96.0094 296.954 92.8379 292.225 88.7637M301.943 100.448L288.338 102.531M301.943 100.448L303.401 90.0289M281.496 80.6521C282.442 81.3019 283.425 81.9953 284.45 82.7358C287.644 85.037 290.162 86.9863 292.225 88.7637M281.496 80.6521L274.732 81.173M281.496 80.6521V74.9218M292.225 88.7637L292.711 81.173M292.225 88.7637L283.479 90.0289" stroke="#D7FFDA"/>
<path d="M312.839 84.6846C303.782 97.7672 304.235 101.93 306.046 113.228C307.858 124.527 334.894 118.863 338.517 117.674C342.14 116.485 350.879 110.85 352.237 106.687C353.596 102.525 352.237 94.1992 352.237 87.6579C352.237 81.1166 353.596 79.9273 357.219 75.1699C360.842 70.4126 371.71 62.682 369.899 60.898C368.087 59.114 360.389 58.5193 352.237 60.898C344.086 63.2766 321.896 71.6019 312.839 84.6846Z" fill="#36B139" stroke="#1F671A" stroke-width="3"/>
<path d="M310.335 117.153C311.07 110.035 313.31 104.388 321.996 90.064M321.996 90.064C325.733 84.5659 332.2 77.5616 332.2 77.5616M321.996 90.064H339.003M321.996 90.064V81.7291M332.2 77.5616C332.2 77.5616 338.252 71.9717 344.834 68.7057M332.2 77.5616H344.834M332.2 77.5616V73.3941M344.834 68.7057C354.045 64.4116 359.304 63.5708 368.643 61.4126M344.834 68.7057L353.58 70.2685M344.834 68.7057V66.101" stroke="#D7FFDA"/>
<ellipse cx="317" cy="195" rx="19" ry="23" fill="white"/>
<ellipse cx="317" cy="200.5" rx="18" ry="17.5" fill="black"/>
<ellipse cx="338" cy="184.5" rx="3" ry="2.5" fill="black"/>
<ellipse cx="325.5" cy="192" rx="3.5" ry="4" fill="white"/>
<ellipse cx="332" cy="174.5" rx="3" ry="2.5" fill="black"/>
<ellipse cx="238" cy="193.5" rx="18" ry="21.5" fill="white"/>
<ellipse cx="239" cy="199" rx="17" ry="16" fill="black"/>
<ellipse cx="217" cy="184.5" rx="3" ry="2.5" fill="black"/>
<circle cx="220.5" cy="174.5" r="2.5" fill="black"/>
<ellipse cx="245.5" cy="191.5" rx="2.5" ry="3.5" fill="white"/>
<path d="M110.176 149.621C108.608 147.882 106.994 150.138 103.721 148.892C100.448 147.646 101.636 145.443 100.874 143.75C100.874 143.75 98.9607 140.467 102.309 138.435C105.657 136.403 109.255 139.877 109.255 139.877C109.255 139.877 112.014 140.627 112.904 140.289C113.793 139.951 113.303 139.239 114.497 138.716C115.691 138.194 119.082 138.358 121.186 139.91C123.289 141.462 123.028 143.843 123.028 143.843C123.028 143.843 129.693 145.253 127.325 148.71C124.958 152.167 120.795 151.259 120.795 151.259C120.795 151.259 120.368 155.154 115.154 153.47C109.939 151.785 110.176 149.621 110.176 149.621Z" fill="#ADABAE" stroke="#4C4C4C" stroke-width="2"/>
<path d="M75.4982 77.8028C73.9491 79.4821 77.1474 79.384 76.7373 81.8128C76.3273 84.2416 73.3303 84.5582 71.5729 85.7566C71.5729 85.7566 68.306 88.3297 64.8079 87.3377C61.3098 86.3457 64.2535 82.7265 64.2535 82.7265C64.2535 82.7265 64.243 80.8147 63.5531 80.46C62.8632 80.1053 62.1785 80.7065 61.1706 80.2616C60.1627 79.8167 59.2521 77.8087 60.4059 75.9089C61.5597 74.0092 64.4651 73.0833 64.4651 73.0833C64.4651 73.0833 63.9645 68.6465 68.8319 68.4361C73.6993 68.2257 73.9792 71.0093 73.9792 71.0093C73.9792 71.0093 78.7336 69.4943 78.4365 73.2277C78.1395 76.9611 75.4982 77.8028 75.4982 77.8028Z" fill="#ADABAE" stroke="#4C4C4C" stroke-width="2"/>
<path d="M137.164 109.221C134.714 107.307 136.314 111.669 133.628 111.405C130.942 111.14 129.213 107.08 127.159 104.822C127.159 104.822 122.987 100.668 122.366 95.7628C121.746 90.8577 126.841 94.4423 126.841 94.4423C126.841 94.4423 128.798 94.1949 128.839 93.2081C128.88 92.2213 127.942 91.3583 127.927 89.9256C127.911 88.4929 129.546 87.0026 132.037 88.349C134.528 89.6954 136.84 93.5562 136.84 93.5562C136.84 93.5562 141.161 92.3307 143.657 98.962C146.154 105.593 143.427 106.315 143.427 106.315C143.427 106.315 147.21 112.633 143.238 112.682C139.266 112.731 137.164 109.221 137.164 109.221Z" fill="#ADABAE" stroke="#4C4C4C" stroke-width="2"/>
<path d="M16.3481 51.5846C15.4745 43.8152 -2.86926 35.1824 3.24534 28.2762C9.35995 21.37 16.3481 32.5926 25.0832 28.2762C33.8183 23.9598 36.4389 30.866 38.1859 38.6355C39.933 46.405 36.4389 48.1315 32.9448 51.5846C29.4508 55.0377 40.8065 65.397 32.9448 68.8501C25.0832 72.3032 25.0832 67.1236 19.8421 64.5338C14.601 61.9439 17.2216 59.3541 16.3481 51.5846Z" fill="#ADABAE"/>
<path d="M66.1384 6.6943C70.5059 4.10447 74 9.28412 74 13.6005C74 17.9169 73.1265 23.0965 70.5059 24.8231C67.8854 26.5496 72.253 33.4558 67.8854 37.7722C63.5178 42.0886 57.4032 34.3191 58.2767 28.2762C59.1503 22.2332 62.6443 23.9598 64.3913 19.6434C66.1384 15.327 61.7708 9.28412 66.1384 6.6943Z" fill="#ADABAE"/>
<path d="M16.3481 51.5846C15.4745 43.8152 -2.86926 35.1824 3.24534 28.2762C9.35995 21.37 16.3481 32.5926 25.0832 28.2762C33.8183 23.9598 36.4389 30.866 38.1859 38.6355C39.933 46.405 36.4389 48.1315 32.9448 51.5846C29.4508 55.0377 40.8065 65.397 32.9448 68.8501C25.0832 72.3032 25.0832 67.1236 19.8421 64.5338C14.601 61.9439 17.2216 59.3541 16.3481 51.5846Z" stroke="#4C4C4C" stroke-width="3"/>
<path d="M66.1384 6.6943C70.5059 4.10447 74 9.28412 74 13.6005C74 17.9169 73.1265 23.0965 70.5059 24.8231C67.8854 26.5496 72.253 33.4558 67.8854 37.7722C63.5178 42.0886 57.4032 34.3191 58.2767 28.2762C59.1503 22.2332 62.6443 23.9598 64.3913 19.6434C66.1384 15.327 61.7708 9.28412 66.1384 6.6943Z" stroke="#4C4C4C" stroke-width="3"/>
<path d="M63.9711 120.957C63.4859 118.408 53.2949 115.575 56.6919 113.309C60.0889 111.043 63.9711 114.726 68.824 113.309C73.6769 111.893 75.1327 114.159 76.1033 116.709C77.0739 119.258 75.1327 119.824 73.1916 120.957C71.2504 122.091 77.5592 125.49 73.1916 126.623C68.824 127.756 68.824 126.056 65.9123 125.206C63.0006 124.357 64.4564 123.507 63.9711 120.957Z" fill="#ADABAE"/>
<path d="M91.6324 106.228C94.0589 105.378 96 107.078 96 108.494C96 109.91 95.5147 111.61 94.0589 112.176C92.603 112.743 95.0294 115.009 92.603 116.425C90.1766 117.842 86.7796 115.292 87.2649 113.309C87.7501 111.327 89.6913 111.893 90.6619 110.477C91.6324 109.06 89.206 107.078 91.6324 106.228Z" fill="#ADABAE"/>
<path d="M63.9711 120.957C63.4859 118.408 53.2949 115.575 56.6919 113.309C60.0889 111.043 63.9711 114.726 68.824 113.309C73.6769 111.893 75.1327 114.159 76.1033 116.709C77.0739 119.258 75.1327 119.824 73.1916 120.957C71.2504 122.091 77.5592 125.49 73.1916 126.623C68.824 127.756 68.824 126.056 65.9123 125.206C63.0006 124.357 64.4564 123.507 63.9711 120.957Z" stroke="#4C4C4C" stroke-width="2"/>
<path d="M91.6324 106.228C94.0589 105.378 96 107.078 96 108.494C96 109.91 95.5147 111.61 94.0589 112.176C92.603 112.743 95.0294 115.009 92.603 116.425C90.1766 117.842 86.7796 115.292 87.2649 113.309C87.7501 111.327 89.6913 111.893 90.6619 110.477C91.6324 109.06 89.206 107.078 91.6324 106.228Z" stroke="#4C4C4C" stroke-width="2"/>
<path d="M158.296 20L167.963 34.5M177.63 49L167.963 34.5M167.963 34.5L183 24.2963M167.963 34.5L154 42.5556" stroke="#DCAC3D" stroke-width="4"/>
<ellipse cx="198.5" cy="26" rx="2.5" ry="3" fill="#DCAC3D"/>
<ellipse cx="208" cy="54.5" rx="2" ry="2.5" fill="#DCAC3D"/>
<path d="M6.20241 250.914L26.7413 257.826M47.2803 264.739L26.7413 257.826M26.7413 257.826L33.6503 235.977M26.7413 257.826L19.241 276.702" stroke="#DCAC3D" stroke-width="4"/>
<ellipse cx="3.62396" cy="3.63913" rx="3.62396" ry="3.63913" transform="matrix(0.782743 -0.622346 0.60913 0.79307 45.5076 225.241)" fill="#DCAC3D"/>
<ellipse cx="2.17437" cy="2.18348" rx="2.17437" ry="2.18348" transform="matrix(0.782743 -0.622346 0.60913 0.79307 77.8865 245.983)" fill="#DCAC3D"/>
<defs>
<filter id="filter0_f_188_2759" x="15" y="424" width="507" height="142" filterUnits="userSpaceOnUse" color-interpolation-filters="sRGB">
<feFlood flood-opacity="0" result="BackgroundImageFix"/>
<feBlend mode="normal" in="SourceGraphic" in2="BackgroundImageFix" result="shape"/>
<feGaussianBlur stdDeviation="10" result="effect1_foregroundBlur_188_2759"/>
</filter>
</defs>
</svg>
