<svg width="548" height="439" viewBox="0 0 548 439" fill="none" xmlns="http://www.w3.org/2000/svg">
<path d="M450 262L460 272.5L464.5 262" stroke="#53936B" stroke-width="4"/>
<mask id="mask0_188_2817" style="mask-type:alpha" maskUnits="userSpaceOnUse" x="0" y="0" width="548" height="439">
<ellipse cx="274" cy="219.5" rx="274" ry="219.5" fill="#D9D9D9"/>
</mask>
<g mask="url(#mask0_188_2817)">
<path d="M548 189.885C278.151 232.624 181.191 271.146 -76 446.885H548V189.885Z" fill="#94D280"/>
</g>
<path d="M228 340.885L236.5 346.385L240.5 333.885" stroke="#53936B" stroke-width="4"/>
<path d="M296.698 382.885L306.118 396.614L313.178 387.054" stroke="#53936B" stroke-width="4"/>
<path d="M133 374.5L142.5 382.5L145.5 369" stroke="#53936B" stroke-width="4"/>
<path d="M388.72 341.925L398.932 356.137L403.425 341.826" stroke="#53936B" stroke-width="4"/>
<path d="M434.771 264.324L442.539 279.821L449.821 267.282" stroke="#53936B" stroke-width="4"/>
<path d="M289.897 275.891L210.93 300.586C204.369 302.638 197.288 299.623 194.221 293.47L187.322 279.629" stroke="black" stroke-width="5"/>
<path d="M333.308 235.819L254.34 260.515C247.779 262.567 240.699 259.551 237.632 253.399L230.732 239.558" stroke="black" stroke-width="5"/>
<path d="M283.646 176.079C283.646 176.079 285.973 154.557 317.989 147.572C350.005 140.587 361.318 163.137 361.318 163.137C361.318 163.137 367.431 144.618 392.265 151.707C417.099 158.796 406.511 178.062 406.511 178.062C406.511 178.062 415.349 169.985 429.749 187.398C444.148 204.812 427.377 220.484 427.377 220.484C427.377 220.484 439.802 233.934 436.509 247.691C433.217 261.448 406.312 263.619 406.312 263.619C406.312 263.619 396.538 301.571 344.862 308.86C293.186 316.149 280.062 294.561 280.062 294.561C280.062 294.561 250.711 301.762 239.612 280.497C228.513 259.232 245.657 243.827 245.657 243.827C245.657 243.827 234.407 233.484 233.379 213.512C232.351 193.541 248.013 190.931 248.013 190.931C248.013 190.931 250.026 175.406 264.409 173.01C278.793 170.613 283.646 176.079 283.646 176.079Z" fill="#ADABAE" stroke="#4C4C4C" stroke-width="6"/>
<path d="M320.285 154.835C320.707 168.12 303.955 168.624 298.884 165.303C293.813 161.981 292.387 156.569 287.739 147.851C283.091 139.132 270.836 130.414 273.371 130.414C275.907 130.414 283.513 129.168 289.429 130.414C295.345 131.659 300.416 134.15 303.374 135.811C306.333 137.472 319.862 141.55 320.285 154.835Z" fill="#DCAC3D" stroke="#67501A" stroke-width="3"/>
<path d="M274.457 131.288C281.395 132.371 285.717 133.768 292.981 138.423M307.994 151.981C312.237 158.823 312.066 160.496 313.346 164.825M307.994 151.981C306.052 148.941 304.331 146.769 300.858 143.979M307.994 151.981L298.004 153.408M307.994 151.981L309.064 144.845M292.981 138.423C293.675 138.868 294.397 139.343 295.15 139.85C297.495 141.426 299.344 142.761 300.858 143.979M292.981 138.423L288.014 138.78M292.981 138.423V134.499M300.858 143.979L301.215 138.78M300.858 143.979L294.436 144.845" stroke="#FFF3D7"/>
<path d="M318.753 147.226C312.102 156.186 312.435 159.037 313.765 166.775C315.095 174.513 334.947 170.634 337.607 169.82C340.267 169.005 346.684 165.146 347.681 162.295C348.679 159.444 347.681 153.742 347.681 149.262C347.681 144.782 348.679 143.968 351.339 140.709C353.999 137.451 361.979 132.157 360.649 130.935C359.319 129.713 353.666 129.306 347.681 130.935C341.696 132.564 325.403 138.266 318.753 147.226Z" fill="#DCAC3D" stroke="#67501A" stroke-width="3"/>
<path d="M316.914 169.463C317.454 164.588 319.098 160.721 325.476 150.91M325.476 150.91C328.22 147.145 332.969 142.348 332.969 142.348M325.476 150.91H337.964M325.476 150.91V145.202M332.969 142.348C332.969 142.348 337.412 138.519 342.245 136.282M332.969 142.348H342.245M332.969 142.348V139.494M342.245 136.282C349.009 133.342 352.869 132.766 359.727 131.288M342.245 136.282L348.667 137.353M342.245 136.282V134.499" stroke="#FFF3D7"/>
<ellipse cx="115.5" cy="115.885" rx="44.5" ry="41" fill="#DCAC3D"/>
<path d="M151.5 73.3848L167.5 60.8848" stroke="#DCAC3D" stroke-width="4"/>
<path d="M114.408 64.269L115.593 43.9997" stroke="#DCAC3D" stroke-width="4"/>
<path d="M76.7428 78.5579L61.2108 65.4809" stroke="#DCAC3D" stroke-width="4"/>
<path d="M61.8615 113.073L41.6708 110.931" stroke="#DCAC3D" stroke-width="4"/>
<path d="M68.629 146.45L49.5617 153.427" stroke="#DCAC3D" stroke-width="4"/>
<path d="M105.287 170.885L98.9644 190.179" stroke="#DCAC3D" stroke-width="4"/>
<path d="M170.915 104.302L191.085 101.967" stroke="#DCAC3D" stroke-width="4"/>
<path d="M157 147.576L176.104 159.651" stroke="#DCAC3D" stroke-width="4"/>
<path d="M425.775 102.965C425.363 99.2015 416.701 95.02 419.588 91.6748C422.476 88.3296 425.775 93.7655 429.9 91.6748C434.025 89.584 435.263 92.9292 436.088 96.6926C436.913 100.456 435.263 101.292 433.613 102.965C431.963 104.637 437.325 109.655 433.613 111.328C429.9 113 429.9 110.491 427.425 109.237C424.95 107.983 426.188 106.728 425.775 102.965Z" fill="#ADABAE"/>
<path d="M449.288 81.2211C451.35 79.9666 453 82.4755 453 84.5663C453 86.657 452.588 89.1659 451.35 90.0022C450.113 90.8385 452.175 94.1837 450.113 96.2744C448.05 98.3652 445.163 94.6018 445.575 91.6748C445.988 88.7477 447.638 89.584 448.463 87.4933C449.288 85.4026 447.225 82.4755 449.288 81.2211Z" fill="#ADABAE"/>
<path d="M425.775 102.965C425.363 99.2015 416.701 95.02 419.588 91.6748C422.476 88.3296 425.775 93.7655 429.9 91.6748C434.025 89.584 435.263 92.9292 436.088 96.6926C436.913 100.456 435.263 101.292 433.613 102.965C431.963 104.637 437.325 109.655 433.613 111.328C429.9 113 429.9 110.491 427.425 109.237C424.95 107.983 426.188 106.728 425.775 102.965Z" stroke="#4C4C4C" stroke-width="3"/>
<path d="M449.288 81.2211C451.35 79.9666 453 82.4755 453 84.5663C453 86.657 452.588 89.1659 451.35 90.0022C450.113 90.8385 452.175 94.1837 450.113 96.2744C448.05 98.3652 445.163 94.6018 445.575 91.6748C445.988 88.7477 447.638 89.584 448.463 87.4933C449.288 85.4026 447.225 82.4755 449.288 81.2211Z" stroke="#4C4C4C" stroke-width="3"/>
<path d="M434.644 145.332C432.083 142.39 430.093 146.983 425.128 145.332C420.162 143.681 421.542 139.278 420.162 136.251C420.162 136.251 416.852 130.473 421.404 125.933C425.955 121.393 431.748 127.171 431.748 127.171C431.748 127.171 435.886 127.997 437.127 127.171C438.368 126.346 437.541 125.108 439.196 123.869C440.851 122.631 445.816 122.218 449.126 124.695C452.436 127.171 452.436 131.711 452.436 131.711C452.436 131.711 462.367 132.95 459.471 139.966C456.574 146.983 450.368 146.157 450.368 146.157C450.368 146.157 450.368 153.586 442.506 151.523C434.644 149.459 434.644 145.332 434.644 145.332Z" fill="#ADABAE" stroke="#4C4C4C" stroke-width="4"/>
<path d="M263.331 264.836L245.521 307.635M245.521 307.635L234.239 306.291M245.521 307.635L251.779 315.584M245.521 307.635L238.616 322.916" stroke="black" stroke-width="5"/>
</svg>
