<svg width="28" height="28" viewBox="0 0 28 28" fill="none" xmlns="http://www.w3.org/2000/svg">
<g clip-path="url(#clip0_294_2035)">
<path d="M14.685 8.16667L4.7835 18.0658L8.44917 4.33067C8.60818 3.74298 8.85857 3.18393 9.19117 2.674L14.685 8.16667ZM20.1683 16.0498C20.756 15.8908 21.3151 15.6404 21.825 15.3078L16.3335 9.8175L6.44017 19.7167L20.1683 16.0498ZM23.484 13.6675C24.1405 12.7093 24.4945 11.5763 24.5002 10.4148V5.83333C24.4998 4.69089 24.1621 3.57398 23.5295 2.62267L17.9843 8.16667L23.484 13.6675ZM18.6668 4.63059e-08H14.0853C12.9236 0.00513717 11.7901 0.358713 10.8315 1.015L16.3335 6.51817L21.8798 0.973C20.9285 0.338428 19.8104 -0.000144566 18.6668 4.63059e-08V4.63059e-08ZM28.0002 25.0833V26.8333C28.0002 27.1428 27.8773 27.4395 27.6585 27.6583C27.4397 27.8771 27.1429 28 26.8335 28C26.5241 28 26.2273 27.8771 26.0085 27.6583C25.7898 27.4395 25.6668 27.1428 25.6668 26.8333V24.9667C25.6853 24.0125 25.3536 23.0846 24.7346 22.3583C24.1155 21.6319 23.2519 21.1575 22.3068 21.0245C21.7298 20.958 21.1452 21.0258 20.5987 21.2228C20.0523 21.4197 19.5588 21.7403 19.1568 22.1597C17.5591 23.9348 15.6181 25.3676 13.451 26.3714C11.284 27.3752 8.93589 27.9293 6.54867 28H4.23167C3.46199 28.0699 2.68855 27.915 2.00517 27.5541C1.32178 27.1931 0.757814 26.6416 0.381671 25.9665C0.0389263 25.2859 -0.0786531 24.514 0.0459096 23.7622C0.170472 23.0104 0.530731 22.3177 1.07467 21.784L3.84784 19.0085C3.95621 18.8999 4.08495 18.8137 4.22669 18.7548C4.36843 18.696 4.52038 18.6657 4.67384 18.6657C4.8273 18.6657 4.97924 18.696 5.12098 18.7548C5.26272 18.8137 5.39147 18.8999 5.49984 19.0085V19.0085C5.71784 19.2272 5.84026 19.5234 5.84026 19.8322C5.84026 20.141 5.71784 20.4371 5.49984 20.6558L2.7185 23.4337C2.53544 23.6166 2.41076 23.8497 2.36023 24.1035C2.3097 24.3573 2.33561 24.6204 2.43466 24.8594C2.53371 25.0985 2.70146 25.3028 2.91667 25.4465C3.13189 25.5902 3.38489 25.6668 3.64367 25.6667H4.9865C9.74773 25.5829 14.295 23.6738 17.6892 20.3338C18.2702 19.7821 18.9547 19.3507 19.7031 19.0646C20.4516 18.7784 21.2492 18.6432 22.0502 18.6667C23.6691 18.7866 25.1827 19.515 26.2865 20.7054C27.3903 21.8958 28.0025 23.4599 28.0002 25.0833V25.0833Z" fill="white"/>
</g>
<defs>
<clipPath id="clip0_294_2035">
<rect width="28" height="28" fill="white"/>
</clipPath>
</defs>
</svg>
