<svg width="28" height="28" viewBox="0 0 28 28" fill="none" xmlns="http://www.w3.org/2000/svg">
<g clip-path="url(#clip0_294_2033)">
<path d="M21.5262 18.6083C20.6756 18.606 19.833 18.7725 19.0471 19.0981C18.2613 19.4238 17.5479 19.9021 16.9482 20.5053C14.2614 23.1933 10.4825 24.5 5.39822 24.5H4.11488C3.9927 24.5012 3.87296 24.4657 3.77112 24.3982C3.66929 24.3307 3.59003 24.2342 3.54356 24.1211C3.4971 24.0081 3.48557 23.8838 3.51047 23.7642C3.53536 23.6445 3.59553 23.5351 3.68322 23.45L6.37472 20.7667L19.7365 17.2037C21.1031 16.8383 22.3108 16.0319 23.1721 14.9099C24.0335 13.7878 24.5003 12.4127 24.5 10.9982V6.41667C24.4979 4.71552 23.8212 3.08468 22.6183 1.88178C21.4154 0.678895 19.7845 0.00216097 18.0834 0L13.5019 0C12.0883 0.00107108 10.7146 0.468458 9.59371 1.3297C8.47281 2.19094 7.66735 3.39792 7.30222 4.7635L3.62255 18.5617L1.20755 20.979C0.632765 21.5544 0.241425 22.2872 0.082978 23.0849C-0.0754688 23.8826 0.00608871 24.7093 0.317345 25.4607C0.628602 26.2121 1.15559 26.8543 1.83172 27.3063C2.50784 27.7582 3.30277 27.9996 4.11605 28H5.39938C11.375 28 16.0942 26.3118 19.4239 22.9833C19.8396 22.5678 20.3692 22.2847 20.9457 22.17C21.5223 22.0553 22.1199 22.114 22.663 22.3387C23.2062 22.5634 23.6706 22.944 23.9976 23.4325C24.3245 23.9211 24.4994 24.4955 24.5 25.0833V26.25C24.5 26.7141 24.6844 27.1592 25.0126 27.4874C25.3408 27.8156 25.7859 28 26.25 28C26.7142 28 27.1593 27.8156 27.4875 27.4874C27.8157 27.1592 28 26.7141 28 26.25V25.0833C27.9985 23.3667 27.316 21.7209 26.1023 20.5069C24.8886 19.293 23.2428 18.6102 21.5262 18.6083V18.6083ZM10.6832 5.66533C10.8137 5.18119 11.0673 4.73907 11.4194 4.382L15.9834 8.67767L20.2172 4.44267C20.7186 4.97785 20.9984 5.6833 21 6.41667V10.9982C20.9986 11.6571 20.7741 12.2961 20.363 12.8112L15.9834 8.67767L7.77122 16.7662L7.71988 16.7802L10.6832 5.66533Z" fill="#374957"/>
</g>
<defs>
<clipPath id="clip0_294_2033">
<rect width="28" height="28" fill="white"/>
</clipPath>
</defs>
</svg>
