<svg width="40" height="40" viewBox="0 0 40 40" fill="none" xmlns="http://www.w3.org/2000/svg">
<g clip-path="url(#clip0_188_2608)">
<path d="M40 20C40 25.3043 37.8929 30.3914 34.1421 34.1421C30.3914 37.8929 25.3043 40 20 40C14.6957 40 9.60859 37.8929 5.85786 34.1421C2.10714 30.3914 0 25.3043 0 20C0 19.337 0.263392 18.7011 0.732233 18.2322C1.20107 17.7634 1.83696 17.5 2.5 17.5C3.16304 17.5 3.79893 17.7634 4.26777 18.2322C4.73661 18.7011 5 19.337 5 20C5 22.9667 5.87973 25.8668 7.52796 28.3336C9.17618 30.8003 11.5189 32.7229 14.2597 33.8582C17.0006 34.9935 20.0166 35.2906 22.9264 34.7118C25.8361 34.133 28.5088 32.7044 30.6066 30.6066C32.7044 28.5088 34.133 25.8361 34.7118 22.9264C35.2906 20.0166 34.9935 17.0006 33.8582 14.2597C32.7229 11.5189 30.8003 9.17618 28.3336 7.52796C25.8668 5.87973 22.9667 5 20 5C19.337 5 18.7011 4.73661 18.2322 4.26777C17.7634 3.79893 17.5 3.16304 17.5 2.5C17.5 1.83696 17.7634 1.20107 18.2322 0.732233C18.7011 0.263392 19.337 0 20 0C25.3026 0.00573514 30.3863 2.11471 34.1358 5.8642C37.8853 9.61368 39.9943 14.6974 40 20ZM11.6667 20C11.6667 20.663 11.9301 21.2989 12.3989 21.7678C12.8677 22.2366 13.5036 22.5 14.1667 22.5H17.8167C18.4499 23.0573 19.2716 23.3526 20.1147 23.3258C20.9578 23.2989 21.7591 22.952 22.3555 22.3555C22.952 21.7591 23.2989 20.9578 23.3258 20.1147C23.3526 19.2716 23.0573 18.4499 22.5 17.8167V10.8333C22.5 10.1703 22.2366 9.53441 21.7678 9.06557C21.2989 8.59672 20.663 8.33333 20 8.33333C19.337 8.33333 18.7011 8.59672 18.2322 9.06557C17.7634 9.53441 17.5 10.1703 17.5 10.8333V17.5H14.1667C13.5036 17.5 12.8677 17.7634 12.3989 18.2322C11.9301 18.7011 11.6667 19.337 11.6667 20ZM11.2333 8.15667C11.7278 8.15667 12.2111 8.01004 12.6223 7.73534C13.0334 7.46064 13.3538 7.07019 13.543 6.61338C13.7323 6.15656 13.7818 5.65389 13.6853 5.16894C13.5888 4.68399 13.3507 4.23853 13.0011 3.8889C12.6515 3.53927 12.206 3.30117 11.7211 3.2047C11.2361 3.10824 10.7334 3.15775 10.2766 3.34697C9.81981 3.53619 9.42936 3.85662 9.15466 4.26774C8.87996 4.67886 8.73333 5.16221 8.73333 5.65667C8.73333 6.31971 8.99673 6.95559 9.46557 7.42443C9.93441 7.89327 10.5703 8.15667 11.2333 8.15667ZM4.855 14.5833C5.34945 14.5833 5.8328 14.4367 6.24393 14.162C6.65505 13.8873 6.97548 13.4969 7.1647 13.04C7.35392 12.5832 7.40343 12.0806 7.30696 11.5956C7.2105 11.1107 6.9724 10.6652 6.62277 10.3156C6.27314 9.96593 5.82768 9.72783 5.34273 9.63137C4.85777 9.53491 4.35511 9.58441 3.89829 9.77363C3.44148 9.96285 3.05103 10.2833 2.77633 10.6944C2.50162 11.1055 2.355 11.5889 2.355 12.0833C2.355 12.7464 2.61839 13.3823 3.08723 13.8511C3.55607 14.3199 4.19196 14.5833 4.855 14.5833Z" fill="#3C6E47"/>
</g>
<defs>
<clipPath id="clip0_188_2608">
<rect width="40" height="40" fill="white"/>
</clipPath>
</defs>
</svg>
