<svg width="28" height="28" viewBox="0 0 28 28" fill="none" xmlns="http://www.w3.org/2000/svg">
<g clip-path="url(#clip0_294_2042)">
<path d="M18.9503 12.5577C17.6376 11.2448 15.8572 10.5072 14.0006 10.5071C12.144 10.507 10.3635 11.2444 9.0506 12.5571C7.73773 13.8698 7.00011 15.6503 7 17.5068C6.99989 19.3634 7.7373 21.144 9.05001 22.4568L13.1415 26.4585C13.371 26.6828 13.6792 26.8084 14.0002 26.8084C14.3211 26.8084 14.6293 26.6828 14.8588 26.4585L18.9503 22.4568C20.263 21.1441 21.0004 19.3637 21.0004 17.5073C21.0004 15.6508 20.263 13.8704 18.9503 12.5577ZM14.0002 19.826C13.5387 19.826 13.0876 19.6892 12.7039 19.4328C12.3201 19.1764 12.0211 18.812 11.8445 18.3856C11.6679 17.9592 11.6216 17.4901 11.7117 17.0375C11.8017 16.5848 12.0239 16.1691 12.3503 15.8428C12.6766 15.5164 13.0923 15.2942 13.545 15.2042C13.9976 15.1141 14.4667 15.1604 14.8931 15.337C15.3195 15.5136 15.6839 15.8126 15.9403 16.1963C16.1967 16.5801 16.3335 17.0312 16.3335 17.4927C16.3335 18.1115 16.0877 18.705 15.6501 19.1426C15.2125 19.5802 14.619 19.826 14.0002 19.826Z" fill="white"/>
<path d="M25.4333 6.50908L17.2667 0.997748C16.3031 0.342848 15.165 -0.00732422 14 -0.00732422C12.835 -0.00732422 11.6969 0.342848 10.7333 0.997748L2.56667 6.50908C1.77534 7.0431 1.12739 7.76343 0.679826 8.60668C0.232263 9.44993 -0.00119112 10.3903 4.56992e-06 11.3449V22.1669C0.00185707 23.7134 0.617034 25.1961 1.71059 26.2897C2.80416 27.3832 4.28681 27.9984 5.83334 28.0003H11.3797L7.41884 24.1258C6.54256 23.2621 5.84567 22.2338 5.36826 21.0999C4.89085 19.966 4.64233 18.7489 4.63701 17.5186C4.63168 16.2883 4.86965 15.0691 5.33724 13.9311C5.80482 12.7931 6.49278 11.7587 7.36155 10.8876C8.23032 10.0164 9.26276 9.32562 10.3995 8.85492C11.5362 8.38422 12.7548 8.14291 13.9851 8.14486C15.2154 8.14682 16.4332 8.392 17.5684 8.8663C18.7036 9.34061 19.7338 10.0347 20.5998 10.9086V10.9086C22.3499 12.6589 23.3331 15.0327 23.3331 17.5078C23.3331 19.983 22.3499 22.3568 20.5998 24.1071L16.6192 28.0003H22.1667C23.7132 27.9984 25.1959 27.3832 26.2894 26.2897C27.383 25.1961 27.9982 23.7134 28 22.1669V11.3449C28.0005 10.3904 27.7667 9.45032 27.3192 8.60719C26.8717 7.76405 26.2242 7.04362 25.4333 6.50908V6.50908Z" fill="white"/>
</g>
<defs>
<clipPath id="clip0_294_2042">
<rect width="28" height="28" fill="white"/>
</clipPath>
</defs>
</svg>
