<svg width="28" height="28" viewBox="0 0 28 28" fill="none" xmlns="http://www.w3.org/2000/svg">
<g clip-path="url(#clip0_294_2039)">
<path d="M28 11.578V21.5833C27.9981 23.2845 27.3215 24.9156 26.1186 26.1185C24.9156 27.3215 23.2846 27.9981 21.5833 28C21.1192 28 20.6741 27.8156 20.3459 27.4874C20.0177 27.1592 19.8333 26.7141 19.8333 26.25C19.8333 25.7858 20.0177 25.3407 20.3459 25.0125C20.6741 24.6843 21.1192 24.5 21.5833 24.5C22.3569 24.5 23.0987 24.1927 23.6457 23.6457C24.1927 23.0987 24.5 22.3568 24.5 21.5833V11.578C24.5003 11.1006 24.3835 10.6304 24.1597 10.2088C23.936 9.78709 23.6122 9.42678 23.2167 9.15945L15.5167 3.96662C15.0705 3.66332 14.5435 3.50114 14.0041 3.50114C13.4646 3.50114 12.9376 3.66332 12.4915 3.96662L4.78333 9.15945C4.38784 9.42678 4.06401 9.78709 3.84025 10.2088C3.6165 10.6304 3.49966 11.1006 3.5 11.578V21.5833C3.5 22.3568 3.80729 23.0987 4.35427 23.6457C4.90125 24.1927 5.64312 24.5 6.41667 24.5C6.8808 24.5 7.32591 24.6843 7.6541 25.0125C7.98229 25.3407 8.16667 25.7858 8.16667 26.25C8.16667 26.7141 7.98229 27.1592 7.6541 27.4874C7.32591 27.8156 6.8808 28 6.41667 28C4.71543 27.9981 3.0844 27.3215 1.88144 26.1185C0.678488 24.9156 0.00185303 23.2845 1.69549e-07 21.5833V11.578C-0.000241273 10.5276 0.257386 9.49316 0.750265 8.56558C1.24314 7.638 1.9562 6.8456 2.82683 6.25795L10.5292 1.06162C11.5528 0.365435 12.7621 -0.00683594 14 -0.00683594C15.2379 -0.00683594 16.4472 0.365435 17.4708 1.06162L25.1708 6.25795C26.0419 6.84534 26.7554 7.63762 27.2487 8.56522C27.742 9.49281 28 10.5273 28 11.578ZM22.1667 17.5C22.1698 18.5727 21.96 19.6354 21.5495 20.6266C21.1389 21.6177 20.5358 22.5174 19.775 23.2738L15.5832 27.3746C15.1615 27.7901 14.5932 28.0231 14.0012 28.0231C13.4091 28.0231 12.8409 27.7901 12.4192 27.3746L8.239 23.2878C7.2865 22.3398 6.58266 21.1714 6.1899 19.8862C5.79714 18.601 5.72761 17.2388 5.98746 15.9203C6.24731 14.6018 6.82852 13.3678 7.67954 12.3277C8.53056 11.2877 9.62509 10.4737 10.8661 9.958C12.107 9.44229 13.4561 9.2408 14.7936 9.37139C16.1311 9.50198 17.4157 9.96061 18.5335 10.7066C19.6513 11.4526 20.5677 12.4629 21.2014 13.648C21.8352 14.833 22.1668 16.1561 22.1667 17.5V17.5ZM18.6667 17.5C18.6666 16.7326 18.4774 15.977 18.1156 15.3002C17.7539 14.6235 17.2308 14.0463 16.5928 13.62C15.9547 13.1936 15.2214 12.9312 14.4577 12.856C13.694 12.7807 12.9235 12.8949 12.2145 13.1885C11.5055 13.4821 10.8798 13.9461 10.393 14.5392C9.90606 15.1324 9.57295 15.8364 9.42313 16.589C9.27331 17.3417 9.31141 18.1196 9.53404 18.854C9.75668 19.5884 10.157 20.2565 10.6995 20.7993L14 24.0333L17.3133 20.7911C17.7451 20.3591 18.087 19.8458 18.3193 19.281C18.5516 18.7161 18.6697 18.1107 18.6667 17.5V17.5ZM14 15.1666C13.5385 15.1666 13.0874 15.3035 12.7037 15.5599C12.32 15.8162 12.0209 16.1807 11.8443 16.607C11.6677 17.0334 11.6215 17.5025 11.7115 17.9552C11.8015 18.4078 12.0238 18.8235 12.3501 19.1499C12.6764 19.4762 13.0922 19.6984 13.5448 19.7885C13.9974 19.8785 14.4666 19.8323 14.8929 19.6557C15.3193 19.4791 15.6837 19.18 15.9401 18.7963C16.1965 18.4126 16.3333 17.9614 16.3333 17.5C16.3333 16.8811 16.0875 16.2876 15.6499 15.85C15.2123 15.4125 14.6188 15.1666 14 15.1666Z" fill="#374957"/>
</g>
<defs>
<clipPath id="clip0_294_2039">
<rect width="28" height="28" fill="white"/>
</clipPath>
</defs>
</svg>
