<svg width="36" height="36" viewBox="0 0 36 36" fill="none" xmlns="http://www.w3.org/2000/svg">
<g clip-path="url(#clip0_243_1936)">
<path d="M18 0C14.4399 0 10.9598 1.05568 7.99974 3.03355C5.03966 5.01141 2.73255 7.82263 1.37018 11.1117C0.00779915 14.4008 -0.348661 18.02 0.345873 21.5116C1.04041 25.0033 2.75474 28.2106 5.27209 30.7279C7.78943 33.2453 10.9967 34.9596 14.4884 35.6541C17.98 36.3487 21.5992 35.9922 24.8883 34.6298C28.1774 33.2675 30.9886 30.9604 32.9665 28.0003C34.9443 25.0402 36 21.5601 36 18C35.9948 13.2277 34.0968 8.65232 30.7222 5.27778C27.3477 1.90324 22.7723 0.00516162 18 0V0ZM22.833 10.5H13.167C14.4402 7.98641 16.0678 5.66874 18 3.618C19.933 5.66816 21.5606 7.98594 22.833 10.5V10.5ZM24.033 13.5C24.494 14.956 24.7347 16.4728 24.747 18C24.7347 19.5272 24.494 21.044 24.033 22.5H11.964C11.503 21.044 11.2623 19.5272 11.25 18C11.2623 16.4728 11.503 14.956 11.964 13.5H24.033ZM14.1 3.534C12.3715 5.64868 10.9449 7.99305 9.86101 10.5H5.02951C7.01829 7.07465 10.2775 4.57163 14.1 3.534V3.534ZM3.00001 18C2.99987 16.4735 3.23306 14.956 3.69151 13.5H8.85001C8.46114 14.9687 8.25955 16.4807 8.25001 18C8.25955 19.5193 8.46114 21.0313 8.85001 22.5H3.69151C3.23306 21.044 2.99987 19.5265 3.00001 18V18ZM5.02951 25.5H9.86101C10.9449 28.007 12.3715 30.3513 14.1 32.466C10.2775 31.4284 7.01829 28.9254 5.02951 25.5V25.5ZM13.167 25.5H22.833C21.5599 28.0136 19.9322 30.3313 18 32.382C16.0671 30.3318 14.4394 28.0141 13.167 25.5V25.5ZM21.9075 32.466C23.6334 30.3509 25.0575 28.0065 26.139 25.5H30.9705C28.9835 28.9238 25.7272 31.4266 21.9075 32.466V32.466ZM33 18C33.0001 19.5265 32.767 21.044 32.3085 22.5H27.15C27.5389 21.0313 27.7405 19.5193 27.75 18C27.7405 16.4807 27.5389 14.9687 27.15 13.5H32.3055C32.765 14.9558 32.9992 16.4734 33 18V18ZM26.139 10.5C25.0575 7.99348 23.6334 5.64913 21.9075 3.534C25.7272 4.57339 28.9835 7.0762 30.9705 10.5H26.139Z" fill="#3C6E47"/>
</g>
<defs>
<clipPath id="clip0_243_1936">
<rect width="36" height="36" fill="white"/>
</clipPath>
</defs>
</svg>
