<svg width="36" height="36" viewBox="0 0 36 36" fill="none" xmlns="http://www.w3.org/2000/svg">
<path d="M18 0C14.4399 0 10.9598 1.05568 7.99974 3.03355C5.03966 5.01141 2.73255 7.82263 1.37018 11.1117C0.00779915 14.4008 -0.348661 18.02 0.345873 21.5116C1.04041 25.0033 2.75474 28.2106 5.27209 30.7279C7.78943 33.2453 10.9967 34.9596 14.4884 35.6541C17.98 36.3487 21.5992 35.9922 24.8883 34.6298C28.1774 33.2675 30.9886 30.9604 32.9665 28.0003C34.9443 25.0402 36 21.5601 36 18C35.9948 13.2277 34.0968 8.65232 30.7222 5.27778C27.3477 1.90324 22.7723 0.00516162 18 0V0ZM31.4115 16.5H26.1945C25.8544 12.5923 24.6838 8.80235 22.761 5.3835C25.0853 6.26249 27.1223 7.76506 28.6484 9.72616C30.1744 11.6873 31.1305 14.031 31.4115 16.5V16.5ZM14.5275 21H21.4725C20.8819 24.1421 19.7038 27.1446 18 29.85C16.296 27.1448 15.1179 24.1422 14.5275 21V21ZM14.3295 16.5C14.7496 12.8157 16.005 9.2758 18 6.15C19.9953 9.27568 21.2507 12.8156 21.6705 16.5H14.3295ZM13.239 5.3835C11.3163 8.80235 10.1457 12.5923 9.80551 16.5H4.58851C4.86953 14.031 5.82558 11.6873 7.35164 9.72616C8.87771 7.76506 10.9148 6.26249 13.239 5.3835V5.3835ZM4.84801 21H9.96151C10.4662 24.3767 11.5765 27.6344 13.239 30.6165C11.1572 29.8275 9.30224 28.5371 7.83854 26.8597C6.37484 25.1822 5.34764 23.1695 4.84801 21V21ZM22.761 30.6165C24.4241 27.6347 25.5345 24.3768 26.0385 21H31.152C30.6524 23.1695 29.6252 25.1822 28.1615 26.8597C26.6978 28.5371 24.8428 29.8275 22.761 30.6165V30.6165Z" fill="#3C6E47"/>
</svg>
