<svg width="20" height="20" viewBox="0 0 20 20" fill="none" xmlns="http://www.w3.org/2000/svg">
<path d="M10 0C7.68024 0.00286677 5.4563 0.92566 3.81598 2.56598C2.17566 4.2063 1.25287 6.43024 1.25 8.75C1.25 11.105 3.08333 14.3883 6.70083 18.5075C7.11337 18.9763 7.62105 19.3518 8.19007 19.609C8.75908 19.8663 9.37638 19.9993 10.0008 19.9993C10.6253 19.9993 11.2426 19.8663 11.8116 19.609C12.3806 19.3518 12.8883 18.9763 13.3008 18.5075C16.9167 14.3892 18.75 11.1058 18.75 8.75C18.7471 6.43024 17.8243 4.2063 16.184 2.56598C14.5437 0.92566 12.3198 0.00286677 10 0V0ZM11.4217 16.8592C11.24 17.0545 11.0199 17.2103 10.7753 17.3168C10.5307 17.4234 10.2668 17.4784 10 17.4784C9.73321 17.4784 9.46927 17.4234 9.22467 17.3168C8.98007 17.2103 8.76005 17.0545 8.57833 16.8592C5.50917 13.3633 3.745 10.4075 3.745 8.75083C3.745 7.09323 4.40348 5.50352 5.57558 4.33142C6.74768 3.15931 8.3374 2.50083 9.995 2.50083C11.6526 2.50083 13.2423 3.15931 14.4144 4.33142C15.5865 5.50352 16.245 7.09323 16.245 8.75083C16.25 10.4075 14.4908 13.3633 11.4217 16.8592Z" fill="#DCAC3D"/>
<path d="M10.0001 5.04614C9.28099 5.04614 8.57804 5.25938 7.98013 5.65889C7.38222 6.0584 6.91621 6.62624 6.64102 7.2906C6.36583 7.95496 6.29383 8.68601 6.43412 9.39129C6.57441 10.0966 6.92069 10.7444 7.42917 11.2529C7.93765 11.7614 8.58549 12.1077 9.29078 12.2479C9.99606 12.3882 10.7271 12.3162 11.3915 12.041C12.0558 11.7659 12.6237 11.2998 13.0232 10.7019C13.4227 10.104 13.6359 9.40108 13.6359 8.68198C13.6348 7.71803 13.2514 6.79388 12.5698 6.11227C11.8882 5.43066 10.964 5.04725 10.0001 5.04614V5.04614ZM10.0001 9.81781C9.77545 9.81781 9.55584 9.75119 9.36906 9.62639C9.18227 9.50158 9.03669 9.32419 8.95072 9.11664C8.86475 8.90909 8.84226 8.68072 8.88608 8.46039C8.92991 8.24006 9.03809 8.03767 9.19694 7.87882C9.35579 7.71997 9.55817 7.61179 9.7785 7.56797C9.99883 7.52414 10.2272 7.54663 10.4348 7.6326C10.6423 7.71857 10.8197 7.86415 10.9445 8.05094C11.0693 8.23773 11.1359 8.45733 11.1359 8.68198C11.1357 8.98315 11.016 9.27193 10.803 9.48489C10.59 9.69785 10.3013 9.81759 10.0001 9.81781V9.81781Z" fill="#DCAC3D"/>
</svg>
