<svg width="28" height="28" viewBox="0 0 28 28" fill="none" xmlns="http://www.w3.org/2000/svg">
<g clip-path="url(#clip0_188_2689)">
<path d="M9.33333 24.5H3.97717C3.85071 24.4997 3.72952 24.4493 3.6401 24.3599C3.55068 24.2705 3.50031 24.1493 3.5 24.0228V3.97717C3.50031 3.85071 3.55068 3.72952 3.6401 3.6401C3.72952 3.55068 3.85071 3.50031 3.97717 3.5H9.33333C9.79746 3.5 10.2426 3.31563 10.5708 2.98744C10.899 2.65925 11.0833 2.21413 11.0833 1.75C11.0833 1.28587 10.899 0.840752 10.5708 0.512563C10.2426 0.184374 9.79746 0 9.33333 0L3.97717 0C2.92274 0.00123506 1.91185 0.420653 1.16625 1.16625C0.420653 1.91185 0.00123506 2.92274 0 3.97717L0 24.0228C0.00123506 25.0773 0.420653 26.0882 1.16625 26.8338C1.91185 27.5793 2.92274 27.9988 3.97717 28H9.33333C9.79746 28 10.2426 27.8156 10.5708 27.4874C10.899 27.1592 11.0833 26.7141 11.0833 26.25C11.0833 25.7859 10.899 25.3408 10.5708 25.0126C10.2426 24.6844 9.79746 24.5 9.33333 24.5Z" fill="#EE2828"/>
<path d="M26.4625 10.2868L21.9335 5.76134C21.7709 5.59886 21.578 5.46999 21.3656 5.38209C21.1533 5.29418 20.9257 5.24897 20.6958 5.24902C20.466 5.24908 20.2384 5.2944 20.0261 5.3824C19.8138 5.47041 19.6209 5.59937 19.4584 5.76192C19.2959 5.92448 19.1671 6.11744 19.0792 6.3298C18.9913 6.54216 18.946 6.76975 18.9461 6.99958C18.9462 7.46375 19.1307 7.90887 19.459 8.237L23.4397 12.2165L7.5835 12.2492C7.11937 12.2492 6.67425 12.4335 6.34606 12.7617C6.01787 13.0899 5.8335 13.535 5.8335 13.9992C5.8335 14.4633 6.01787 14.9084 6.34606 15.2366C6.67425 15.5648 7.11937 15.7492 7.5835 15.7492V15.7492L23.5038 15.72L19.459 19.7648C19.15 20.0967 18.9819 20.5356 18.9902 20.9889C18.9984 21.4423 19.1822 21.8748 19.503 22.1953C19.8238 22.5158 20.2565 22.6992 20.7098 22.707C21.1632 22.7148 21.6019 22.5463 21.9335 22.237L26.459 17.7115C26.9465 17.224 27.3332 16.6452 27.5971 16.0083C27.8609 15.3713 27.9967 14.6886 27.9967 13.9992C27.9967 13.3097 27.8609 12.627 27.5971 11.9901C27.3332 11.3531 26.9465 10.7743 26.459 10.2868H26.4625Z" fill="#EE2828"/>
</g>
<defs>
<clipPath id="clip0_188_2689">
<rect width="28" height="28" fill="white"/>
</clipPath>
</defs>
</svg>
