<svg width="28" height="28" viewBox="0 0 28 28" fill="none" xmlns="http://www.w3.org/2000/svg">
<path d="M19.2502 0H8.75016C7.04893 0.00185286 5.4179 0.678488 4.21494 1.88144C3.01198 3.0844 2.33535 4.71543 2.3335 6.41667V21.5833C2.33535 23.2846 3.01198 24.9156 4.21494 26.1186C5.4179 27.3215 7.04893 27.9981 8.75016 28H19.2502C20.9514 27.9981 22.5824 27.3215 23.7854 26.1186C24.9883 24.9156 25.665 23.2846 25.6668 21.5833V6.41667C25.665 4.71543 24.9883 3.0844 23.7854 1.88144C22.5824 0.678488 20.9514 0.00185286 19.2502 0V0ZM22.1668 21H15.1668V22.1667C15.1668 22.4761 15.0439 22.7728 14.8251 22.9916C14.6063 23.2104 14.3096 23.3333 14.0002 23.3333C13.6907 23.3333 13.394 23.2104 13.1752 22.9916C12.9564 22.7728 12.8335 22.4761 12.8335 22.1667V21H5.8335V6.41667C5.8335 5.64312 6.14079 4.90125 6.68777 4.35427C7.23475 3.80729 7.97661 3.5 8.75016 3.5H19.2502C20.0237 3.5 20.7656 3.80729 21.3126 4.35427C21.8595 4.90125 22.1668 5.64312 22.1668 6.41667V21Z" fill="#374957"/>
</svg>
