<svg width="28" height="28" viewBox="0 0 28 28" fill="none" xmlns="http://www.w3.org/2000/svg">
<path d="M15.1668 23.3327C15.1668 23.6421 15.0439 23.9388 14.8251 24.1576C14.6063 24.3764 14.3096 24.4993 14.0002 24.4993C13.6907 24.4993 13.394 24.3764 13.1752 24.1576C12.9564 23.9388 12.8335 23.6421 12.8335 23.3327V22.166H2.3335C2.33535 23.7125 2.95053 25.1952 4.04409 26.2887C5.13765 27.3823 6.6203 27.9975 8.16683 27.9993H19.8335C21.38 27.9975 22.8627 27.3823 23.9562 26.2887C25.0498 25.1952 25.665 23.7125 25.6668 22.166H15.1668V23.3327Z" fill="white"/>
<path d="M19.8335 0H8.16683C6.6203 0.0018525 5.13765 0.617029 4.04409 1.71059C2.95053 2.80415 2.33535 4.28681 2.3335 5.83333V19.8333H25.6668V5.83333C25.665 4.28681 25.0498 2.80415 23.9562 1.71059C22.8627 0.617029 21.38 0.0018525 19.8335 0V0Z" fill="white"/>
</svg>
