<svg width="28" height="28" viewBox="0 0 28 28" fill="none" xmlns="http://www.w3.org/2000/svg">
<path d="M1.87462 21C2.83964 22.6749 4.97973 23.2503 6.65458 22.2853C6.65573 22.2846 6.65683 22.284 6.65798 22.2833L7.17712 21.9834C8.15712 22.8219 9.28358 23.4721 10.4998 23.9014V24.5C10.4998 26.433 12.0668 28 13.9998 28C15.9328 28 17.4998 26.433 17.4998 24.5V23.9015C18.7161 23.4715 19.8426 22.8205 20.8224 21.9811L21.3439 22.2821C23.0192 23.2486 25.1608 22.6741 26.1273 20.9988C27.0938 19.3236 26.5192 17.1819 24.8439 16.2154L24.3259 15.9168C24.5591 14.648 24.5591 13.3473 24.3259 12.0784L24.8439 11.7798C26.5192 10.8133 27.0938 8.67174 26.1273 6.99645C25.1608 5.3212 23.0192 4.7466 21.3439 5.71309L20.8248 6.01295C19.8438 5.17552 18.7166 4.52648 17.4998 4.0985V3.5C17.4998 1.56702 15.9328 0 13.9998 0C12.0668 0 10.4998 1.56702 10.4998 3.5V4.0985C9.28341 4.52851 8.1569 5.17951 7.17712 6.01885L6.65562 5.7167C4.98033 4.75016 2.83876 5.32476 1.87227 7C0.90578 8.67524 1.48033 10.8169 3.15562 11.7834L3.67362 12.082C3.44044 13.3508 3.44044 14.6515 3.67362 15.9204L3.15562 16.219C1.48498 17.1881 0.912288 19.3255 1.87462 21ZM13.9998 9.33335C16.5771 9.33335 18.6664 11.4227 18.6664 14C18.6664 16.5773 16.5771 18.6666 13.9998 18.6666C11.4225 18.6666 9.33312 16.5773 9.33312 14C9.33312 11.4227 11.4225 9.33335 13.9998 9.33335Z" fill="white"/>
</svg>
