<svg width="24" height="28" viewBox="0 0 24 28" fill="none" xmlns="http://www.w3.org/2000/svg">
<path d="M23.4678 14C23.466 12.2123 23.0503 10.4493 22.2533 8.84917L22.853 8.43267C23.2336 8.1673 23.4934 7.7616 23.575 7.30478C23.6566 6.84796 23.5534 6.37743 23.2881 5.99667V5.99667C23.0228 5.61597 22.617 5.35627 22.1602 5.27466C21.7034 5.19305 21.2329 5.29623 20.8521 5.5615L20.2513 5.97917C18.4699 4.099 16.1119 2.86725 13.5511 2.47917V1.75C13.5511 1.28587 13.3667 0.840752 13.0386 0.512563C12.7104 0.184374 12.2652 0 11.8011 0C11.337 0 10.8919 0.184374 10.5637 0.512563C10.2355 0.840752 10.0511 1.28587 10.0511 1.75V2.47917C7.49032 2.86725 5.13233 4.099 3.35095 5.97917L2.75012 5.5615C2.36936 5.29623 1.89883 5.19305 1.44201 5.27466C0.985188 5.35627 0.579483 5.61597 0.314119 5.99667V5.99667C0.0488498 6.37743 -0.0543269 6.84796 0.0272795 7.30478C0.108886 7.7616 0.368593 8.1673 0.749286 8.43267L1.34895 8.84917C0.550258 10.4487 0.134485 12.2121 0.134485 14C0.134485 15.7879 0.550258 17.5513 1.34895 19.1508L0.749286 19.5673C0.368593 19.8327 0.108886 20.2384 0.0272795 20.6952C-0.0543269 21.152 0.0488498 21.6226 0.314119 22.0033V22.0033C0.579483 22.384 0.985188 22.6437 1.44201 22.7253C1.89883 22.8069 2.36936 22.7038 2.75012 22.4385L3.35095 22.0208C5.13233 23.901 7.49032 25.1328 10.0511 25.5208V26.25C10.0511 26.7141 10.2355 27.1592 10.5637 27.4874C10.8919 27.8156 11.337 28 11.8011 28C12.2652 28 12.7104 27.8156 13.0386 27.4874C13.3667 27.1592 13.5511 26.7141 13.5511 26.25V25.5208C16.1119 25.1328 18.4699 23.901 20.2513 22.0208L20.8521 22.4385C21.2329 22.7038 21.7034 22.8069 22.1602 22.7253C22.617 22.6437 23.0228 22.384 23.2881 22.0033C23.5534 21.6226 23.6566 21.152 23.575 20.6952C23.4934 20.2384 23.2336 19.8327 22.853 19.5673L22.2533 19.1508C23.0503 17.5507 23.466 15.7877 23.4678 14V14ZM11.8011 22.1667C10.1859 22.1667 8.60696 21.6877 7.26396 20.7903C5.92096 19.893 4.87422 18.6175 4.2561 17.1252C3.63799 15.633 3.47626 13.9909 3.79137 12.4068C4.10649 10.8226 4.88429 9.36742 6.02641 8.22529C7.16854 7.08317 8.6237 6.30537 10.2079 5.99025C11.7921 5.67514 13.4341 5.83687 14.9264 6.45498C16.4186 7.0731 17.6941 8.11984 18.5915 9.46284C19.4888 10.8058 19.9678 12.3848 19.9678 14C19.965 16.1651 19.1037 18.2407 17.5728 19.7716C16.0418 21.3026 13.9662 22.1639 11.8011 22.1667V22.1667Z" fill="#3C6E47"/>
</svg>
