<svg width="28" height="28" viewBox="0 0 28 28" fill="none" xmlns="http://www.w3.org/2000/svg">
<g clip-path="url(#clip0_188_2680)">
<path d="M21.678 2.49744L14.3688 0.0602692C14.1295 -0.0194387 13.8708 -0.0194387 13.6315 0.0602692L6.32117 2.49744C5.15927 2.88366 4.14862 3.62619 3.43278 4.61953C2.71693 5.61288 2.33229 6.80653 2.3335 8.03094V14.0008C2.3335 22.8243 13.0668 27.6974 13.5265 27.9004C13.6756 27.9667 13.837 28.0009 14.0002 28.0009C14.1633 28.0009 14.3247 27.9667 14.4738 27.9004C14.9335 27.6974 25.6668 22.8243 25.6668 14.0008V8.03094C25.668 6.80639 25.2831 5.61263 24.5671 4.61926C23.851 3.6259 22.8401 2.88346 21.678 2.49744V2.49744Z" fill="white"/>
</g>
<defs>
<clipPath id="clip0_188_2680">
<rect width="28" height="28" fill="white"/>
</clipPath>
</defs>
</svg>
