<svg width="28" height="28" viewBox="0 0 28 28" fill="none" xmlns="http://www.w3.org/2000/svg">
<g clip-path="url(#clip0_188_2693)">
<path d="M13.9999 27.9989C13.7551 27.999 13.5131 27.9477 13.2894 27.8484C12.8332 27.6489 2.22705 22.8294 2.22705 13.9989V8.45376C2.2256 7.10659 2.64881 5.79323 3.43652 4.70036C4.22424 3.60748 5.33638 2.7907 6.61489 2.36609L13.4457 0.088757C13.8056 -0.0302367 14.1942 -0.0302367 14.5541 0.088757L21.3849 2.36609C22.6633 2.79085 23.7753 3.60768 24.563 4.70052C25.3507 5.79336 25.774 7.10663 25.7727 8.45376V13.9989C25.7727 24.0533 15.0114 27.7563 14.5541 27.9091C14.3754 27.9689 14.1883 27.9992 13.9999 27.9989V27.9989ZM13.9999 3.59342L7.72205 5.68642C7.14113 5.87991 6.63583 6.25131 6.27777 6.748C5.9197 7.24468 5.72703 7.84146 5.72705 8.45376V13.9989C5.72705 19.5231 12.0516 23.2763 14.0897 24.3414C16.1396 23.4863 22.2727 20.3946 22.2727 13.9989V8.45376C22.2727 7.84146 22.0801 7.24468 21.722 6.748C21.3639 6.25131 20.8586 5.87991 20.2777 5.68642L13.9999 3.59342Z" fill="#3C6E47"/>
</g>
<defs>
<clipPath id="clip0_188_2693">
<rect width="28" height="28" fill="white"/>
</clipPath>
</defs>
</svg>
