<svg width="40" height="40" viewBox="0 0 40 40" fill="none" xmlns="http://www.w3.org/2000/svg">
<g clip-path="url(#clip0_188_2609)">
<path d="M38.3323 1.67078C36.954 0.273328 34.9443 -0.299636 33.0364 0.161L7.56009 5.51523C2.72204 6.23114 -0.619583 10.7335 0.0963288 15.5715C0.374648 17.4524 1.25101 19.1938 2.59573 20.5381L5.32698 23.271C5.45485 23.3972 5.52633 23.5697 5.52531 23.7493V28.7886C5.52898 31.9236 8.06947 34.4641 11.2045 34.4678H16.2438C16.4237 34.4678 16.5963 34.5391 16.7237 34.6661L19.4549 37.3973C21.1064 39.0598 23.3524 39.9953 25.6957 39.997C26.663 39.9962 27.6238 39.838 28.5403 39.5287C31.7032 38.4783 34.0015 35.7316 34.4778 32.4331L39.832 7.03673C40.313 5.10872 39.7432 3.06996 38.3323 1.67078ZM5.20208 13.0458C5.65498 11.6465 6.87715 10.6361 8.33662 10.4545C8.39552 10.4467 8.45379 10.4367 8.5116 10.4245L30.7117 5.75855L10.5247 25.9339V23.7492C10.5283 22.2421 9.92811 20.7963 8.85827 19.7348L6.1303 17.0036C5.07959 15.9759 4.71777 14.4335 5.20208 13.0458ZM29.5686 31.4898C29.5552 31.5482 29.5469 31.6065 29.5386 31.6648C29.2491 33.7757 27.3034 35.2523 25.1925 34.9629C24.3586 34.8485 23.5849 34.4646 22.9895 33.8695L20.2599 31.1399C19.1979 30.0697 17.7515 29.4696 16.2438 29.4735H14.0592L34.2412 9.2864L29.5686 31.4898Z" fill="#3C6E47"/>
</g>
<defs>
<clipPath id="clip0_188_2609">
<rect width="40" height="40" fill="white"/>
</clipPath>
</defs>
</svg>
