<svg width="40" height="40" viewBox="0 0 40 40" fill="none" xmlns="http://www.w3.org/2000/svg">
<g clip-path="url(#clip0_188_2607)">
<path d="M38.3334 1.64661C37.7431 1.05776 37.0297 0.607064 36.2444 0.326947C35.4591 0.0468309 34.6214 -0.0557412 33.7917 0.0266107C29.2951 0.461611 14.1551 2.34328 8.20007 8.29828C5.40377 11.1144 3.70412 14.8359 3.40684 18.7933C3.10957 22.7507 4.23419 26.6844 6.5784 29.8866L0.731735 35.7316C0.262744 36.2006 -0.000732422 36.8367 -0.000732422 37.4999C-0.000732422 38.1632 0.262744 38.7993 0.731735 39.2683C1.20073 39.7373 1.83682 40.0008 2.50007 40.0008C3.16332 40.0008 3.79941 39.7373 4.2684 39.2683L10.1134 33.4216C13.3156 35.7658 17.2493 36.8905 21.2067 36.5932C25.1642 36.2959 28.8856 34.5962 31.7017 31.7999C37.7401 25.7616 39.5617 10.6666 39.9751 6.18161C40.0533 5.35138 39.9466 4.51413 39.6628 3.73002C39.3789 2.94591 38.9249 2.2344 38.3334 1.64661V1.64661ZM28.1667 28.2633C26.2914 30.1278 23.8377 31.299 21.2086 31.5843C18.5796 31.8696 15.9317 31.2521 13.7001 29.8333L27.6017 15.9333C28.0707 15.4643 28.3342 14.8282 28.3342 14.1649C28.3342 13.5017 28.0707 12.8656 27.6017 12.3966C27.1327 11.9276 26.4967 11.6641 25.8334 11.6641C25.1702 11.6641 24.5341 11.9276 24.0651 12.3966L10.1667 26.2999C8.7479 24.0683 8.13041 21.4204 8.41573 18.7914C8.70105 16.1624 9.8722 13.7086 11.7367 11.8333C15.5367 8.03328 26.2517 5.77994 34.2751 4.99994C34.3721 4.98951 34.4703 5.00101 34.5623 5.03361C34.6544 5.06621 34.7379 5.11907 34.8067 5.18828C34.8777 5.25641 34.932 5.33994 34.9655 5.43242C34.9991 5.5249 35.0109 5.62384 35.0001 5.72161C34.2584 13.7083 32.0267 24.4033 28.1667 28.2633V28.2633Z" fill="#3C6E47"/>
</g>
<defs>
<clipPath id="clip0_188_2607">
<rect width="40" height="40" fill="white"/>
</clipPath>
</defs>
</svg>
